<?xml version="1.0" encoding="UTF-8"?>
<!DOCTYPE svg PUBLIC "-//W3C//DTD SVG 1.1//EN" "http://www.w3.org/Graphics/SVG/1.1/DTD/svg11.dtd">
<!-- Creator: CorelDRAW -->
<svg xmlns="http://www.w3.org/2000/svg" xml:space="preserve" width="210mm" height="297mm" style="shape-rendering:geometricPrecision; text-rendering:geometricPrecision; image-rendering:optimizeQuality; fill-rule:evenodd; clip-rule:evenodd"
viewBox="0 0 210 297"
 xmlns:xlink="http://www.w3.org/1999/xlink"
 version="1.1">
 <defs>
  <style type="text/css">
   <![CDATA[
    .str3 {stroke:#2B2A29;stroke-width:0.1693}
    .str0 {stroke:#2B2A29;stroke-width:0.2}
    .str2 {stroke:black;stroke-width:0.2}
    .str1 {stroke:#2B2A29;stroke-width:2}
    .fil1 {fill:#2B2A29}
    .fil0 {fill:black}
    .fil2 {fill:#1F1B20}
   ]]>
  </style>
 </defs>
 <g id="Слой_x0020_1">
  <metadata id="CorelCorpID_0Corel-Layer"/>
  <g id="snow42.svg">
   <path id="_310879768" class="fil0" d="M53.6424 53.5497l-5.505 -3.181 4.6476 -2.7678c0.7471,-0.36 0.9784,-1.3634 0.5535,-2.101 -0.4326,-0.7554 -1.3662,-0.9147 -2.075,-0.5017l-6.1966 3.6295 -9.8482 -5.7305 9.8481 -5.6714 6.1966 3.6236c0.1936,0.1416 0.4426,0.2242 0.7195,0.2242 0.5251,0 0.9956,-0.2478 1.3555,-0.72 0.4149,-0.7495 0.1936,-1.741 -0.5536,-2.1009l-4.6476 -2.7679 5.5051 -3.1809c0.7176,-0.4131 0.9643,-1.3397 0.5535,-2.101 -0.3923,-0.7318 -1.3632,-0.9855 -2.1026,-0.5547l-5.5329 3.2104 -0.0826 -5.5357c-0.013,-0.8557 -0.6639,-1.5463 -1.5214,-1.5463 -0.8574,0 -1.5279,0.7436 -1.5214,1.5463l0.0549 7.3062 -9.7926 5.6714 0 -11.5081 6.169 -3.5174c0.7201,-0.4072 1.0339,-1.3574 0.6084,-2.1009 -0.432,-0.7555 -1.3189,-0.9798 -2.0749,-0.5548l-4.7025 2.6558 0 -6.2794c0,-0.8557 -0.6917,-1.5462 -1.5492,-1.5462l-0.0242 0.0003 0 50.9834 0.0242 0.0003c0.8575,0 1.5492,-0.6668 1.5492,-1.5226l0 -6.3384 4.7025 2.6558c0.2153,0.1239 0.4703,0.1712 0.7194,0.1712 0.6084,0 1.0569,-0.2478 1.3555,-0.779 0.4202,-0.7436 0.1488,-1.6762 -0.6085,-2.101l-6.1689 -3.4583 0 -11.5082 9.7926 5.6715 -0.0549 7.2472c-0.0071,0.8616 0.664,1.5757 1.5215,1.5757 0.8574,0 1.5084,-0.661 1.5213,-1.5167l0.0827 -5.5652 5.5328 3.24c0.2136,0.1239 0.498,0.1653 0.8026,0.1653 0.5808,0 1.0068,-0.242 1.3,-0.7201 0.454,-0.7377 0.1642,-1.6879 -0.5534,-2.101z"/>
   <g>
   </g>
   <g>
   </g>
   <g>
   </g>
   <g>
   </g>
   <g>
   </g>
   <g>
   </g>
   <g>
   </g>
   <g>
   </g>
   <g>
   </g>
   <g>
   </g>
   <g>
   </g>
   <g>
   </g>
   <g>
   </g>
   <g>
   </g>
   <g>
   </g>
  </g>
  <g id="sun94.svg">
   <g>
    <path id="_310876504" class="fil0" d="M32.0207 27.6285c0.0203,0 0.0406,-0.0005 0.0607,-0.0012l0 -10.1217c-0.0201,-0.0007 -0.0404,-0.0012 -0.0607,-0.0012 -0.8964,0 -1.5905,0.6972 -1.5905,1.5917l0 6.9406c0,0.8946 0.6941,1.5918 1.5905,1.5918z"/>
    <path id="_310876744" class="fil0" d="M32.0207 58.3645c-0.8964,0 -1.5905,0.6971 -1.5905,1.5917l0 6.9406c0,0.8391 0.6941,1.5917 1.5905,1.5917 0.0203,0 0.0406,-0.0005 0.0607,-0.0013l0 -10.1215c-0.0201,-0.0007 -0.0404,-0.0012 -0.0607,-0.0012z"/>
    <path id="_310877008" class="fil0" d="M32.0814 30.5778l-0.0607 -0.0003c-3.413,0 -6.3335,1.2153 -8.7624,3.6399 -2.4006,2.4 -3.6153,5.3242 -3.6153,8.736 0,3.4117 1.2006,6.3483 3.6153,8.7606 2.4147,2.4183 5.3494,3.6152 8.7624,3.6152l0.0607 -0.0003 0 -3.1774 -0.0607 0.0004c-2.5158,0 -4.685,-0.9007 -6.4779,-2.6899 -1.7928,-1.7953 -2.6899,-3.9669 -2.6899,-6.5087 0,-2.5171 0.8971,-4.6825 2.6899,-6.4779 1.7928,-1.7953 3.962,-2.6899 6.4779,-2.6899l0.0607 0.0004 0 -3.2081z"/>
    <path id="_308666920" class="fil0" d="M18.949 32.1383c0.3183,0.3146 0.694,0.4627 1.1283,0.4627 0.3757,0 0.7514,-0.148 1.1278,-0.4627 0.5781,-0.6663 0.5781,-1.6781 0,-2.258l-4.9164 -4.917c-0.5781,-0.5738 -1.6775,-0.5738 -2.2556,0 -0.6651,0.6663 -0.6231,1.6349 0,2.258l4.9159 4.917z"/>
    <path id="_308667016" class="fil0" d="M18.8916 53.8547l-4.8584 4.8615c-0.6651,0.6601 -0.6651,1.6472 0,2.3136 0.607,0.6046 1.6485,0.6046 2.2555,0l4.9165 -4.9171c0.6231,-0.6231 0.5781,-1.6781 0,-2.258 -0.6651,-0.6663 -1.6486,-0.6663 -2.3136,0z"/>
    <path id="_308667112" class="fil0" d="M16.6934 42.9533c0,-0.8945 -0.6941,-1.5917 -1.5905,-1.5917l-6.9406 0c-0.8963,0 -1.5904,0.6972 -1.5904,1.5918 0,0.8945 0.6941,1.6163 1.5904,1.6163l6.9406 0c0.8965,0 1.5905,-0.7218 1.5905,-1.6164z"/>
   </g>
   <g>
   </g>
   <g>
   </g>
   <g>
   </g>
   <g>
   </g>
   <g>
   </g>
   <g>
   </g>
   <g>
   </g>
   <g>
   </g>
   <g>
   </g>
   <g>
   </g>
   <g>
   </g>
   <g>
   </g>
   <g>
   </g>
   <g>
   </g>
   <g>
   </g>
  </g>
  <path class="fil1 str0" d="M25.5428 36.4754c-1.7928,1.7954 -2.6899,3.9608 -2.6899,6.4779 0,2.5418 0.8971,4.7134 2.6899,6.5087 1.7929,1.7892 3.9621,2.6899 6.4779,2.6899l0.0607 -0.0004 0 3.1774 -0.0607 0.0003c-3.413,0 -6.3477,-1.1969 -8.7624,-3.6152 -2.4147,-2.4123 -3.6153,-5.3489 -3.6153,-8.7606 0,-3.4118 1.2147,-6.336 3.6153,-8.736 2.4289,-2.4246 5.3494,-3.6399 8.7624,-3.6399l0.0607 0.0003 0 3.2081 -0.0607 -0.0004c-2.5159,0 -4.6851,0.8946 -6.4779,2.6899zm-10.4399 4.8862c0.8964,0 1.5905,0.6972 1.5905,1.5917 0,0.8946 -0.694,1.6164 -1.5905,1.6164l-6.9406 0c-0.8963,0 -1.5904,-0.7218 -1.5904,-1.6163 0,-0.8946 0.6941,-1.5918 1.5904,-1.5918l6.9406 0zm-1.0697 17.3546l4.8584 -4.8615c0.665,-0.6663 1.6485,-0.6663 2.3136,0 0.5781,0.5799 0.6231,1.6349 0,2.258l-4.9165 4.9171c-0.607,0.6046 -1.6485,0.6046 -2.2555,0 -0.6651,-0.6664 -0.6651,-1.6535 0,-2.3136zm6.0441 -26.1152c-0.4343,0 -0.81,-0.1481 -1.1283,-0.4627l-4.9159 -4.917c-0.6231,-0.6231 -0.6651,-1.5917 0,-2.258 0.5781,-0.5738 1.6775,-0.5738 2.2556,0l4.9164 4.917c0.5781,0.5799 0.5781,1.5917 0,2.258 -0.3764,0.3147 -0.7521,0.4627 -1.1278,0.4627zm10.3529 27.3552c0,-0.8946 0.6941,-1.5917 1.5905,-1.5917l0.0607 0.0012 0 10.1215 -0.0607 0.0013c-0.8964,0 -1.5905,-0.7526 -1.5905,-1.5917l0 -6.9406zm1.6512 -32.3289l-0.0607 0.0012c-0.8964,0 -1.5905,-0.6972 -1.5905,-1.5918l0 -6.9406c0,-0.8945 0.6941,-1.5917 1.5905,-1.5917l0.0607 0.0012 0 10.1217zm0.0424 40.8059l0 -50.9834 0.0242 -0.0003c0.8575,0 1.5492,0.6905 1.5492,1.5462l0 6.2794 4.7025 -2.6558c0.756,-0.425 1.6429,-0.2007 2.0749,0.5548 0.4255,0.7435 0.1117,1.6937 -0.6084,2.1009l-6.169 3.5174 0 11.5081 9.7926 -5.6714 -0.0549 -7.3062c-0.0065,-0.8027 0.664,-1.5463 1.5214,-1.5463 0.8575,0 1.5084,0.6906 1.5214,1.5463l0.0826 5.5357 5.5329 -3.2104c0.7394,-0.4308 1.7103,-0.1771 2.1026,0.5547 0.4108,0.7613 0.1641,1.6879 -0.5535,2.101l-5.5051 3.1809 4.6476 2.7679c0.7472,0.3599 0.9685,1.3514 0.5536,2.1009 -0.3599,0.4722 -0.8304,0.72 -1.3555,0.72 -0.2769,0 -0.5259,-0.0826 -0.7195,-0.2242l-6.1966 -3.6236 -9.8481 5.6714 9.8482 5.7305 6.1966 -3.6295c0.7088,-0.413 1.6424,-0.2537 2.075,0.5017 0.4249,0.7376 0.1936,1.741 -0.5535,2.101l-4.6476 2.7678 5.505 3.181c0.7176,0.4131 1.0074,1.3633 0.5534,2.101 -0.2932,0.4781 -0.7192,0.7201 -1.3,0.7201 -0.3046,0 -0.589,-0.0414 -0.8026,-0.1653l-5.5328 -3.24 -0.0827 5.5652c-0.0129,0.8557 -0.6639,1.5167 -1.5213,1.5167 -0.8575,0 -1.5286,-0.7141 -1.5215,-1.5757l0.0549 -7.2472 -9.7926 -5.6715 0 11.5082 6.1689 3.4583c0.7573,0.4248 1.0287,1.3574 0.6085,2.101 -0.2986,0.5312 -0.7471,0.779 -1.3555,0.779 -0.2491,0 -0.5041,-0.0473 -0.7194,-0.1712l-4.7025 -2.6558 0 6.3384c0,0.8558 -0.6917,1.5226 -1.5492,1.5226l-0.0242 -0.0003z"/>
  <path class="fil1 str0" d="M25.5428 36.4754c-1.7928,1.7954 -2.6899,3.9608 -2.6899,6.4779 0,2.5418 0.8971,4.7134 2.6899,6.5087 1.7929,1.7892 3.9621,2.6899 6.4779,2.6899l0.0607 -0.0004 0 3.1774 -0.0607 0.0003c-3.413,0 -6.3477,-1.1969 -8.7624,-3.6152 -2.4147,-2.4123 -3.6153,-5.3489 -3.6153,-8.7606 0,-3.4118 1.2147,-6.336 3.6153,-8.736 2.4289,-2.4246 5.3494,-3.6399 8.7624,-3.6399l0.0607 0.0003 0 3.2081 -0.0607 -0.0004c-2.5159,0 -4.6851,0.8946 -6.4779,2.6899zm-10.4399 4.8862c0.8964,0 1.5905,0.6972 1.5905,1.5917 0,0.8946 -0.694,1.6164 -1.5905,1.6164l-6.9406 0c-0.8963,0 -1.5904,-0.7218 -1.5904,-1.6163 0,-0.8946 0.6941,-1.5918 1.5904,-1.5918l6.9406 0zm-1.0697 17.3546l4.8584 -4.8615c0.665,-0.6663 1.6485,-0.6663 2.3136,0 0.5781,0.5799 0.6231,1.6349 0,2.258l-4.9165 4.9171c-0.607,0.6046 -1.6485,0.6046 -2.2555,0 -0.6651,-0.6664 -0.6651,-1.6535 0,-2.3136zm6.0441 -26.1152c-0.4343,0 -0.81,-0.1481 -1.1283,-0.4627l-4.9159 -4.917c-0.6231,-0.6231 -0.6651,-1.5917 0,-2.258 0.5781,-0.5738 1.6775,-0.5738 2.2556,0l4.9164 4.917c0.5781,0.5799 0.5781,1.5917 0,2.258 -0.3764,0.3147 -0.7521,0.4627 -1.1278,0.4627zm10.3529 27.3552c0,-0.8946 0.6941,-1.5917 1.5905,-1.5917l0.0607 0.0012 0 10.1215 -0.0607 0.0013c-0.8964,0 -1.5905,-0.7526 -1.5905,-1.5917l0 -6.9406zm1.6512 -32.3289l-0.0607 0.0012c-0.8964,0 -1.5905,-0.6972 -1.5905,-1.5918l0 -6.9406c0,-0.8945 0.6941,-1.5917 1.5905,-1.5917l0.0607 0.0012 0 10.1217zm0.0424 40.8059l0 -50.9834 0.0242 -0.0003c0.8575,0 1.5492,0.6905 1.5492,1.5462l0 6.2794 4.7025 -2.6558c0.756,-0.425 1.6429,-0.2007 2.0749,0.5548 0.4255,0.7435 0.1117,1.6937 -0.6084,2.1009l-6.169 3.5174 0 11.5081 9.7926 -5.6714 -0.0549 -7.3062c-0.0065,-0.8027 0.664,-1.5463 1.5214,-1.5463 0.8575,0 1.5084,0.6906 1.5214,1.5463l0.0826 5.5357 5.5329 -3.2104c0.7394,-0.4308 1.7103,-0.1771 2.1026,0.5547 0.4108,0.7613 0.1641,1.6879 -0.5535,2.101l-5.5051 3.1809 4.6476 2.7679c0.7472,0.3599 0.9685,1.3514 0.5536,2.1009 -0.3599,0.4722 -0.8304,0.72 -1.3555,0.72 -0.2769,0 -0.5259,-0.0826 -0.7195,-0.2242l-6.1966 -3.6236 -9.8481 5.6714 9.8482 5.7305 6.1966 -3.6295c0.7088,-0.413 1.6424,-0.2537 2.075,0.5017 0.4249,0.7376 0.1936,1.741 -0.5535,2.101l-4.6476 2.7678 5.505 3.181c0.7176,0.4131 1.0074,1.3633 0.5534,2.101 -0.2932,0.4781 -0.7192,0.7201 -1.3,0.7201 -0.3046,0 -0.589,-0.0414 -0.8026,-0.1653l-5.5328 -3.24 -0.0827 5.5652c-0.0129,0.8557 -0.6639,1.5167 -1.5213,1.5167 -0.8575,0 -1.5286,-0.7141 -1.5215,-1.5757l0.0549 -7.2472 -9.7926 -5.6715 0 11.5082 6.1689 3.4583c0.7573,0.4248 1.0287,1.3574 0.6085,2.101 -0.2986,0.5312 -0.7471,0.779 -1.3555,0.779 -0.2491,0 -0.5041,-0.0473 -0.7194,-0.1712l-4.7025 -2.6558 0 6.3384c0,0.8558 -0.6917,1.5226 -1.5492,1.5226l-0.0242 -0.0003z"/>
  <path class="fil1 str0" d="M25.5428 36.4754c-1.7928,1.7954 -2.6899,3.9608 -2.6899,6.4779 0,2.5418 0.8971,4.7134 2.6899,6.5087 1.7929,1.7892 3.9621,2.6899 6.4779,2.6899l0.0607 -0.0004 0 3.1774 -0.0607 0.0003c-3.413,0 -6.3477,-1.1969 -8.7624,-3.6152 -2.4147,-2.4123 -3.6153,-5.3489 -3.6153,-8.7606 0,-3.4118 1.2147,-6.336 3.6153,-8.736 2.4289,-2.4246 5.3494,-3.6399 8.7624,-3.6399l0.0607 0.0003 0 3.2081 -0.0607 -0.0004c-2.5159,0 -4.6851,0.8946 -6.4779,2.6899zm-10.4399 4.8862c0.8964,0 1.5905,0.6972 1.5905,1.5917 0,0.8946 -0.694,1.6164 -1.5905,1.6164l-6.9406 0c-0.8963,0 -1.5904,-0.7218 -1.5904,-1.6163 0,-0.8946 0.6941,-1.5918 1.5904,-1.5918l6.9406 0zm-1.0697 17.3546l4.8584 -4.8615c0.665,-0.6663 1.6485,-0.6663 2.3136,0 0.5781,0.5799 0.6231,1.6349 0,2.258l-4.9165 4.9171c-0.607,0.6046 -1.6485,0.6046 -2.2555,0 -0.6651,-0.6664 -0.6651,-1.6535 0,-2.3136zm6.0441 -26.1152c-0.4343,0 -0.81,-0.1481 -1.1283,-0.4627l-4.9159 -4.917c-0.6231,-0.6231 -0.6651,-1.5917 0,-2.258 0.5781,-0.5738 1.6775,-0.5738 2.2556,0l4.9164 4.917c0.5781,0.5799 0.5781,1.5917 0,2.258 -0.3764,0.3147 -0.7521,0.4627 -1.1278,0.4627zm10.3529 27.3552c0,-0.8946 0.6941,-1.5917 1.5905,-1.5917l0.0607 0.0012 0 10.1215 -0.0607 0.0013c-0.8964,0 -1.5905,-0.7526 -1.5905,-1.5917l0 -6.9406zm1.6512 -32.3289l-0.0607 0.0012c-0.8964,0 -1.5905,-0.6972 -1.5905,-1.5918l0 -6.9406c0,-0.8945 0.6941,-1.5917 1.5905,-1.5917l0.0607 0.0012 0 10.1217zm0.0424 40.8059l0 -50.9834 0.0242 -0.0003c0.8575,0 1.5492,0.6905 1.5492,1.5462l0 6.2794 4.7025 -2.6558c0.756,-0.425 1.6429,-0.2007 2.0749,0.5548 0.4255,0.7435 0.1117,1.6937 -0.6084,2.1009l-6.169 3.5174 0 11.5081 9.7926 -5.6714 -0.0549 -7.3062c-0.0065,-0.8027 0.664,-1.5463 1.5214,-1.5463 0.8575,0 1.5084,0.6906 1.5214,1.5463l0.0826 5.5357 5.5329 -3.2104c0.7394,-0.4308 1.7103,-0.1771 2.1026,0.5547 0.4108,0.7613 0.1641,1.6879 -0.5535,2.101l-5.5051 3.1809 4.6476 2.7679c0.7472,0.3599 0.9685,1.3514 0.5536,2.1009 -0.3599,0.4722 -0.8304,0.72 -1.3555,0.72 -0.2769,0 -0.5259,-0.0826 -0.7195,-0.2242l-6.1966 -3.6236 -9.8481 5.6714 9.8482 5.7305 6.1966 -3.6295c0.7088,-0.413 1.6424,-0.2537 2.075,0.5017 0.4249,0.7376 0.1936,1.741 -0.5535,2.101l-4.6476 2.7678 5.505 3.181c0.7176,0.4131 1.0074,1.3633 0.5534,2.101 -0.2932,0.4781 -0.7192,0.7201 -1.3,0.7201 -0.3046,0 -0.589,-0.0414 -0.8026,-0.1653l-5.5328 -3.24 -0.0827 5.5652c-0.0129,0.8557 -0.6639,1.5167 -1.5213,1.5167 -0.8575,0 -1.5286,-0.7141 -1.5215,-1.5757l0.0549 -7.2472 -9.7926 -5.6715 0 11.5082 6.1689 3.4583c0.7573,0.4248 1.0287,1.3574 0.6085,2.101 -0.2986,0.5312 -0.7471,0.779 -1.3555,0.779 -0.2491,0 -0.5041,-0.0473 -0.7194,-0.1712l-4.7025 -2.6558 0 6.3384c0,0.8558 -0.6917,1.5226 -1.5492,1.5226l-0.0242 -0.0003z"/>
  <path class="fil1 str0" d="M25.5428 36.4754c-1.7928,1.7954 -2.6899,3.9608 -2.6899,6.4779 0,2.5418 0.8971,4.7134 2.6899,6.5087 1.7929,1.7892 3.9621,2.6899 6.4779,2.6899l0.0607 -0.0004 0 3.1774 -0.0607 0.0003c-3.413,0 -6.3477,-1.1969 -8.7624,-3.6152 -2.4147,-2.4123 -3.6153,-5.3489 -3.6153,-8.7606 0,-3.4118 1.2147,-6.336 3.6153,-8.736 2.4289,-2.4246 5.3494,-3.6399 8.7624,-3.6399l0.0607 0.0003 0 3.2081 -0.0607 -0.0004c-2.5159,0 -4.6851,0.8946 -6.4779,2.6899zm-10.4399 4.8862c0.8964,0 1.5905,0.6972 1.5905,1.5917 0,0.8946 -0.694,1.6164 -1.5905,1.6164l-6.9406 0c-0.8963,0 -1.5904,-0.7218 -1.5904,-1.6163 0,-0.8946 0.6941,-1.5918 1.5904,-1.5918l6.9406 0zm-1.0697 17.3546l4.8584 -4.8615c0.665,-0.6663 1.6485,-0.6663 2.3136,0 0.5781,0.5799 0.6231,1.6349 0,2.258l-4.9165 4.9171c-0.607,0.6046 -1.6485,0.6046 -2.2555,0 -0.6651,-0.6664 -0.6651,-1.6535 0,-2.3136zm6.0441 -26.1152c-0.4343,0 -0.81,-0.1481 -1.1283,-0.4627l-4.9159 -4.917c-0.6231,-0.6231 -0.6651,-1.5917 0,-2.258 0.5781,-0.5738 1.6775,-0.5738 2.2556,0l4.9164 4.917c0.5781,0.5799 0.5781,1.5917 0,2.258 -0.3764,0.3147 -0.7521,0.4627 -1.1278,0.4627zm10.3529 27.3552c0,-0.8946 0.6941,-1.5917 1.5905,-1.5917l0.0607 0.0012 0 10.1215 -0.0607 0.0013c-0.8964,0 -1.5905,-0.7526 -1.5905,-1.5917l0 -6.9406zm1.6512 -32.3289l-0.0607 0.0012c-0.8964,0 -1.5905,-0.6972 -1.5905,-1.5918l0 -6.9406c0,-0.8945 0.6941,-1.5917 1.5905,-1.5917l0.0607 0.0012 0 10.1217zm0.0424 40.8059l0 -50.9834 0.0242 -0.0003c0.8575,0 1.5492,0.6905 1.5492,1.5462l0 6.2794 4.7025 -2.6558c0.756,-0.425 1.6429,-0.2007 2.0749,0.5548 0.4255,0.7435 0.1117,1.6937 -0.6084,2.1009l-6.169 3.5174 0 11.5081 9.7926 -5.6714 -0.0549 -7.3062c-0.0065,-0.8027 0.664,-1.5463 1.5214,-1.5463 0.8575,0 1.5084,0.6906 1.5214,1.5463l0.0826 5.5357 5.5329 -3.2104c0.7394,-0.4308 1.7103,-0.1771 2.1026,0.5547 0.4108,0.7613 0.1641,1.6879 -0.5535,2.101l-5.5051 3.1809 4.6476 2.7679c0.7472,0.3599 0.9685,1.3514 0.5536,2.1009 -0.3599,0.4722 -0.8304,0.72 -1.3555,0.72 -0.2769,0 -0.5259,-0.0826 -0.7195,-0.2242l-6.1966 -3.6236 -9.8481 5.6714 9.8482 5.7305 6.1966 -3.6295c0.7088,-0.413 1.6424,-0.2537 2.075,0.5017 0.4249,0.7376 0.1936,1.741 -0.5535,2.101l-4.6476 2.7678 5.505 3.181c0.7176,0.4131 1.0074,1.3633 0.5534,2.101 -0.2932,0.4781 -0.7192,0.7201 -1.3,0.7201 -0.3046,0 -0.589,-0.0414 -0.8026,-0.1653l-5.5328 -3.24 -0.0827 5.5652c-0.0129,0.8557 -0.6639,1.5167 -1.5213,1.5167 -0.8575,0 -1.5286,-0.7141 -1.5215,-1.5757l0.0549 -7.2472 -9.7926 -5.6715 0 11.5082 6.1689 3.4583c0.7573,0.4248 1.0287,1.3574 0.6085,2.101 -0.2986,0.5312 -0.7471,0.779 -1.3555,0.779 -0.2491,0 -0.5041,-0.0473 -0.7194,-0.1712l-4.7025 -2.6558 0 6.3384c0,0.8558 -0.6917,1.5226 -1.5492,1.5226l-0.0242 -0.0003z"/>
  <path class="fil1 str0" d="M25.5428 36.4754c-1.7928,1.7954 -2.6899,3.9608 -2.6899,6.4779 0,2.5418 0.8971,4.7134 2.6899,6.5087 1.7929,1.7892 3.9621,2.6899 6.4779,2.6899l0.0607 -0.0004 0 3.1774 -0.0607 0.0003c-3.413,0 -6.3477,-1.1969 -8.7624,-3.6152 -2.4147,-2.4123 -3.6153,-5.3489 -3.6153,-8.7606 0,-3.4118 1.2147,-6.336 3.6153,-8.736 2.4289,-2.4246 5.3494,-3.6399 8.7624,-3.6399l0.0607 0.0003 0 3.2081 -0.0607 -0.0004c-2.5159,0 -4.6851,0.8946 -6.4779,2.6899zm-10.4399 4.8862c0.8964,0 1.5905,0.6972 1.5905,1.5917 0,0.8946 -0.694,1.6164 -1.5905,1.6164l-6.9406 0c-0.8963,0 -1.5904,-0.7218 -1.5904,-1.6163 0,-0.8946 0.6941,-1.5918 1.5904,-1.5918l6.9406 0zm-1.0697 17.3546l4.8584 -4.8615c0.665,-0.6663 1.6485,-0.6663 2.3136,0 0.5781,0.5799 0.6231,1.6349 0,2.258l-4.9165 4.9171c-0.607,0.6046 -1.6485,0.6046 -2.2555,0 -0.6651,-0.6664 -0.6651,-1.6535 0,-2.3136zm6.0441 -26.1152c-0.4343,0 -0.81,-0.1481 -1.1283,-0.4627l-4.9159 -4.917c-0.6231,-0.6231 -0.6651,-1.5917 0,-2.258 0.5781,-0.5738 1.6775,-0.5738 2.2556,0l4.9164 4.917c0.5781,0.5799 0.5781,1.5917 0,2.258 -0.3764,0.3147 -0.7521,0.4627 -1.1278,0.4627zm10.3529 27.3552c0,-0.8946 0.6941,-1.5917 1.5905,-1.5917l0.0607 0.0012 0 10.1215 -0.0607 0.0013c-0.8964,0 -1.5905,-0.7526 -1.5905,-1.5917l0 -6.9406zm1.6512 -32.3289l-0.0607 0.0012c-0.8964,0 -1.5905,-0.6972 -1.5905,-1.5918l0 -6.9406c0,-0.8945 0.6941,-1.5917 1.5905,-1.5917l0.0607 0.0012 0 10.1217zm0.0424 40.8059l0 -50.9834 0.0242 -0.0003c0.8575,0 1.5492,0.6905 1.5492,1.5462l0 6.2794 4.7025 -2.6558c0.756,-0.425 1.6429,-0.2007 2.0749,0.5548 0.4255,0.7435 0.1117,1.6937 -0.6084,2.1009l-6.169 3.5174 0 11.5081 9.7926 -5.6714 -0.0549 -7.3062c-0.0065,-0.8027 0.664,-1.5463 1.5214,-1.5463 0.8575,0 1.5084,0.6906 1.5214,1.5463l0.0826 5.5357 5.5329 -3.2104c0.7394,-0.4308 1.7103,-0.1771 2.1026,0.5547 0.4108,0.7613 0.1641,1.6879 -0.5535,2.101l-5.5051 3.1809 4.6476 2.7679c0.7472,0.3599 0.9685,1.3514 0.5536,2.1009 -0.3599,0.4722 -0.8304,0.72 -1.3555,0.72 -0.2769,0 -0.5259,-0.0826 -0.7195,-0.2242l-6.1966 -3.6236 -9.8481 5.6714 9.8482 5.7305 6.1966 -3.6295c0.7088,-0.413 1.6424,-0.2537 2.075,0.5017 0.4249,0.7376 0.1936,1.741 -0.5535,2.101l-4.6476 2.7678 5.505 3.181c0.7176,0.4131 1.0074,1.3633 0.5534,2.101 -0.2932,0.4781 -0.7192,0.7201 -1.3,0.7201 -0.3046,0 -0.589,-0.0414 -0.8026,-0.1653l-5.5328 -3.24 -0.0827 5.5652c-0.0129,0.8557 -0.6639,1.5167 -1.5213,1.5167 -0.8575,0 -1.5286,-0.7141 -1.5215,-1.5757l0.0549 -7.2472 -9.7926 -5.6715 0 11.5082 6.1689 3.4583c0.7573,0.4248 1.0287,1.3574 0.6085,2.101 -0.2986,0.5312 -0.7471,0.779 -1.3555,0.779 -0.2491,0 -0.5041,-0.0473 -0.7194,-0.1712l-4.7025 -2.6558 0 6.3384c0,0.8558 -0.6917,1.5226 -1.5492,1.5226l-0.0242 -0.0003z"/>
  <path class="fil1 str0" d="M19.643 42.9534c0,-3.4118 1.2147,-6.336 3.6153,-8.736 2.4289,-2.4246 5.3494,-3.6399 8.7624,-3.6399l0.0607 0.0003 0 3.2081 -0.0607 -0.0004c-2.5159,0 -4.6851,0.8946 -6.4779,2.6899 -1.7928,1.7954 -2.6899,3.9608 -2.6899,6.4779 0,2.5418 0.8971,4.7134 2.6899,6.5087 1.7929,1.7892 3.9621,2.6899 6.4779,2.6899l0.0607 -0.0004 0 3.1774 -0.0607 0.0003c-3.413,0 -6.3477,-1.1969 -8.7624,-3.6152 -2.4147,-2.4123 -3.6153,-5.3489 -3.6153,-8.7606zm-3.3543 -17.9901l4.9164 4.917c0.5781,0.5799 0.5781,1.5917 0,2.258 -0.3764,0.3147 -0.7521,0.4627 -1.1278,0.4627 -0.4343,0 -0.81,-0.1481 -1.1283,-0.4627l-4.9159 -4.917c-0.6231,-0.6231 -0.6651,-1.5917 0,-2.258 0.5781,-0.5738 1.6775,-0.5738 2.2556,0zm-1.1858 16.3983c0.8964,0 1.5905,0.6972 1.5905,1.5917 0,0.8946 -0.694,1.6164 -1.5905,1.6164l-6.9406 0c-0.8963,0 -1.5904,-0.7218 -1.5904,-1.6163 0,-0.8946 0.6941,-1.5918 1.5904,-1.5918l6.9406 0zm-1.0697 17.3546l4.8584 -4.8615c0.665,-0.6663 1.6485,-0.6663 2.3136,0 0.5781,0.5799 0.6231,1.6349 0,2.258l-4.9165 4.9171c-0.607,0.6046 -1.6485,0.6046 -2.2555,0 -0.6651,-0.6664 -0.6651,-1.6535 0,-2.3136zm16.397 1.24c0,-0.8946 0.6941,-1.5917 1.5905,-1.5917l0.0607 0.0012 0 10.1215 -0.0607 0.0013c-0.8964,0 -1.5905,-0.7526 -1.5905,-1.5917l0 -6.9406zm0 -33.9195l0 -6.9406c0,-0.8945 0.6941,-1.5917 1.5905,-1.5917l0.0607 0.0012 0 10.1217 -0.0607 0.0012c-0.8964,0 -1.5905,-0.6972 -1.5905,-1.5918zm1.6936 42.3965l0 -50.9834 0.0242 -0.0003c0.8575,0 1.5492,0.6905 1.5492,1.5462l0 6.2794 4.7025 -2.6558c0.756,-0.425 1.6429,-0.2007 2.0749,0.5548 0.4255,0.7435 0.1117,1.6937 -0.6084,2.1009l-6.169 3.5174 0 11.5081 9.7926 -5.6714 -0.0549 -7.3062c-0.0065,-0.8027 0.664,-1.5463 1.5214,-1.5463 0.8575,0 1.5084,0.6906 1.5214,1.5463l0.0826 5.5357 5.5329 -3.2104c0.7394,-0.4308 1.7103,-0.1771 2.1026,0.5547 0.4108,0.7613 0.1641,1.6879 -0.5535,2.101l-5.5051 3.1809 4.6476 2.7679c0.7472,0.3599 0.9685,1.3514 0.5536,2.1009 -0.3599,0.4722 -0.8304,0.72 -1.3555,0.72 -0.2769,0 -0.5259,-0.0826 -0.7195,-0.2242l-6.1966 -3.6236 -9.8481 5.6714 9.8482 5.7305 6.1966 -3.6295c0.7088,-0.413 1.6424,-0.2537 2.075,0.5017 0.4249,0.7376 0.1936,1.741 -0.5535,2.101l-4.6476 2.7678 5.505 3.181c0.7176,0.4131 1.0074,1.3633 0.5534,2.101 -0.2932,0.4781 -0.7192,0.7201 -1.3,0.7201 -0.3046,0 -0.589,-0.0414 -0.8026,-0.1653l-5.5328 -3.24 -0.0827 5.5652c-0.0129,0.8557 -0.6639,1.5167 -1.5213,1.5167 -0.8575,0 -1.5286,-0.7141 -1.5215,-1.5757l0.0549 -7.2472 -9.7926 -5.6715 0 11.5082 6.1689 3.4583c0.7573,0.4248 1.0287,1.3574 0.6085,2.101 -0.2986,0.5312 -0.7471,0.779 -1.3555,0.779 -0.2491,0 -0.5041,-0.0473 -0.7194,-0.1712l-4.7025 -2.6558 0 6.3384c0,0.8558 -0.6917,1.5226 -1.5492,1.5226l-0.0242 -0.0003z"/>
  <path class="fil1 str0" d="M23.2583 34.2174c-2.4006,2.4 -3.6153,5.3242 -3.6153,8.736 0,3.4117 1.2006,6.3483 3.6153,8.7606 2.4147,2.4183 5.3494,3.6152 8.7624,3.6152l0.0607 -0.0003 0 -3.1774 -0.0607 0.0004c-2.5158,0 -4.685,-0.9007 -6.4779,-2.6899 -1.7928,-1.7953 -2.6899,-3.9669 -2.6899,-6.5087 0,-2.5171 0.8971,-4.6825 2.6899,-6.4779 1.7928,-1.7953 3.962,-2.6899 6.4779,-2.6899l0.0607 0.0004 0 -3.2081 -0.0607 -0.0003c-3.413,0 -6.3335,1.2153 -8.7624,3.6399z"/>
  <path class="fil1 str0" d="M25.5428 36.4754c-1.7928,1.7954 -2.6899,3.9608 -2.6899,6.4779 0,2.5418 0.8971,4.7134 2.6899,6.5087 1.7929,1.7892 3.9621,2.6899 6.4779,2.6899l0.0607 -0.0004 0 3.1774 -0.0607 0.0003c-3.413,0 -6.3477,-1.1969 -8.7624,-3.6152 -2.4147,-2.4123 -3.6153,-5.3489 -3.6153,-8.7606 0,-3.4118 1.2147,-6.336 3.6153,-8.736 2.4289,-2.4246 5.3494,-3.6399 8.7624,-3.6399l0.0607 0.0003 0 3.2081 -0.0607 -0.0004c-2.5159,0 -4.6851,0.8946 -6.4779,2.6899zm-4.3377 -6.5951c0.5781,0.5799 0.5781,1.5917 0,2.258 -0.3764,0.3147 -0.7521,0.4627 -1.1278,0.4627 -0.4343,0 -0.81,-0.1481 -1.1283,-0.4627l-4.9159 -4.917c-0.6231,-0.6231 -0.6651,-1.5917 0,-2.258 0.5781,-0.5738 1.6775,-0.5738 2.2556,0l4.9164 4.917zm-6.1022 11.4813c0.8964,0 1.5905,0.6972 1.5905,1.5917 0,0.8946 -0.694,1.6164 -1.5905,1.6164l-6.9406 0c-0.8963,0 -1.5904,-0.7218 -1.5904,-1.6163 0,-0.8946 0.6941,-1.5918 1.5904,-1.5918l6.9406 0zm-1.0697 17.3546l4.8584 -4.8615c0.665,-0.6663 1.6485,-0.6663 2.3136,0 0.5781,0.5799 0.6231,1.6349 0,2.258l-4.9165 4.9171c-0.607,0.6046 -1.6485,0.6046 -2.2555,0 -0.6651,-0.6664 -0.6651,-1.6535 0,-2.3136zm16.397 1.24c0,-0.8946 0.6941,-1.5917 1.5905,-1.5917l0.0607 0.0012 0 10.1215 -0.0607 0.0013c-0.8964,0 -1.5905,-0.7526 -1.5905,-1.5917l0 -6.9406zm0 -33.9195l0 -6.9406c0,-0.8945 0.6941,-1.5917 1.5905,-1.5917l0.0607 0.0012 0 10.1217 -0.0607 0.0012c-0.8964,0 -1.5905,-0.6972 -1.5905,-1.5918zm1.6936 42.3965l0 -50.9834 0.0242 -0.0003c0.8575,0 1.5492,0.6905 1.5492,1.5462l0 6.2794 4.7025 -2.6558c0.756,-0.425 1.6429,-0.2007 2.0749,0.5548 0.4255,0.7435 0.1117,1.6937 -0.6084,2.1009l-6.169 3.5174 0 11.5081 9.7926 -5.6714 -0.0549 -7.3062c-0.0065,-0.8027 0.664,-1.5463 1.5214,-1.5463 0.8575,0 1.5084,0.6906 1.5214,1.5463l0.0826 5.5357 5.5329 -3.2104c0.7394,-0.4308 1.7103,-0.1771 2.1026,0.5547 0.4108,0.7613 0.1641,1.6879 -0.5535,2.101l-5.5051 3.1809 4.6476 2.7679c0.7472,0.3599 0.9685,1.3514 0.5536,2.1009 -0.3599,0.4722 -0.8304,0.72 -1.3555,0.72 -0.2769,0 -0.5259,-0.0826 -0.7195,-0.2242l-6.1966 -3.6236 -9.8481 5.6714 9.8482 5.7305 6.1966 -3.6295c0.7088,-0.413 1.6424,-0.2537 2.075,0.5017 0.4249,0.7376 0.1936,1.741 -0.5535,2.101l-4.6476 2.7678 5.505 3.181c0.7176,0.4131 1.0074,1.3633 0.5534,2.101 -0.2932,0.4781 -0.7192,0.7201 -1.3,0.7201 -0.3046,0 -0.589,-0.0414 -0.8026,-0.1653l-5.5328 -3.24 -0.0827 5.5652c-0.0129,0.8557 -0.6639,1.5167 -1.5213,1.5167 -0.8575,0 -1.5286,-0.7141 -1.5215,-1.5757l0.0549 -7.2472 -9.7926 -5.6715 0 11.5082 6.1689 3.4583c0.7573,0.4248 1.0287,1.3574 0.6085,2.101 -0.2986,0.5312 -0.7471,0.779 -1.3555,0.779 -0.2491,0 -0.5041,-0.0473 -0.7194,-0.1712l-4.7025 -2.6558 0 6.3384c0,0.8558 -0.6917,1.5226 -1.5492,1.5226l-0.0242 -0.0003z"/>
  <path class="fil2 str0" d="M25.5428 36.4754c1.7928,-1.7953 3.962,-2.6899 6.4779,-2.6899l0.0607 0.0004 0 -3.2081 -0.0607 -0.0003c-3.413,0 -6.3335,1.2153 -8.7624,3.6399 -2.4006,2.4 -3.6153,5.3242 -3.6153,8.736 0,3.4117 1.2006,6.3483 3.6153,8.7606 2.4147,2.4183 5.3494,3.6152 8.7624,3.6152l0.0607 -0.0003 0 -3.1774 -0.0607 0.0004c-2.5158,0 -4.685,-0.9007 -6.4779,-2.6899 -1.7928,-1.7953 -2.6899,-3.9669 -2.6899,-6.5087 0,-2.5171 0.8971,-4.6825 2.6899,-6.4779z"/>
  <path class="fil1 str0" d="M32.0207 33.7855c-2.5159,0 -4.6851,0.8946 -6.4779,2.6899 -1.7928,1.7954 -2.6899,3.9608 -2.6899,6.4779 0,2.5418 0.8971,4.7134 2.6899,6.5087 1.7929,1.7892 3.9621,2.6899 6.4779,2.6899l0.0607 -0.0004 0 3.1774 -0.0607 0.0003c-3.413,0 -6.3477,-1.1969 -8.7624,-3.6152 -2.4147,-2.4123 -3.6153,-5.3489 -3.6153,-8.7606 0,-3.4118 1.2147,-6.336 3.6153,-8.736 2.4289,-2.4246 5.3494,-3.6399 8.7624,-3.6399l0.0607 0.0003 0 3.2081 -0.0607 -0.0004zm-10.8156 -3.9052c0.5781,0.5799 0.5781,1.5917 0,2.258 -0.3764,0.3147 -0.7521,0.4627 -1.1278,0.4627 -0.4343,0 -0.81,-0.1481 -1.1283,-0.4627l-4.9159 -4.917c-0.6231,-0.6231 -0.6651,-1.5917 0,-2.258 0.5781,-0.5738 1.6775,-0.5738 2.2556,0l4.9164 4.917zm-6.1022 11.4813c0.8964,0 1.5905,0.6972 1.5905,1.5917 0,0.8946 -0.694,1.6164 -1.5905,1.6164l-6.9406 0c-0.8963,0 -1.5904,-0.7218 -1.5904,-1.6163 0,-0.8946 0.6941,-1.5918 1.5904,-1.5918l6.9406 0zm-1.0697 17.3546l4.8584 -4.8615c0.665,-0.6663 1.6485,-0.6663 2.3136,0 0.5781,0.5799 0.6231,1.6349 0,2.258l-4.9165 4.9171c-0.607,0.6046 -1.6485,0.6046 -2.2555,0 -0.6651,-0.6664 -0.6651,-1.6535 0,-2.3136zm16.397 1.24c0,-0.8946 0.6941,-1.5917 1.5905,-1.5917l0.0607 0.0012 0 10.1215 -0.0607 0.0013c-0.8964,0 -1.5905,-0.7526 -1.5905,-1.5917l0 -6.9406zm0 -33.9195l0 -6.9406c0,-0.8945 0.6941,-1.5917 1.5905,-1.5917l0.0607 0.0012 0 10.1217 -0.0607 0.0012c-0.8964,0 -1.5905,-0.6972 -1.5905,-1.5918zm1.6936 42.3965l0 -50.9834 0.0242 -0.0003c0.8575,0 1.5492,0.6905 1.5492,1.5462l0 6.2794 4.7025 -2.6558c0.756,-0.425 1.6429,-0.2007 2.0749,0.5548 0.4255,0.7435 0.1117,1.6937 -0.6084,2.1009l-6.169 3.5174 0 11.5081 9.7926 -5.6714 -0.0549 -7.3062c-0.0065,-0.8027 0.664,-1.5463 1.5214,-1.5463 0.8575,0 1.5084,0.6906 1.5214,1.5463l0.0826 5.5357 5.5329 -3.2104c0.7394,-0.4308 1.7103,-0.1771 2.1026,0.5547 0.4108,0.7613 0.1641,1.6879 -0.5535,2.101l-5.5051 3.1809 4.6476 2.7679c0.7472,0.3599 0.9685,1.3514 0.5536,2.1009 -0.3599,0.4722 -0.8304,0.72 -1.3555,0.72 -0.2769,0 -0.5259,-0.0826 -0.7195,-0.2242l-6.1966 -3.6236 -9.8481 5.6714 9.8482 5.7305 6.1966 -3.6295c0.7088,-0.413 1.6424,-0.2537 2.075,0.5017 0.4249,0.7376 0.1936,1.741 -0.5535,2.101l-4.6476 2.7678 5.505 3.181c0.7176,0.4131 1.0074,1.3633 0.5534,2.101 -0.2932,0.4781 -0.7192,0.7201 -1.3,0.7201 -0.3046,0 -0.589,-0.0414 -0.8026,-0.1653l-5.5328 -3.24 -0.0827 5.5652c-0.0129,0.8557 -0.6639,1.5167 -1.5213,1.5167 -0.8575,0 -1.5286,-0.7141 -1.5215,-1.5757l0.0549 -7.2472 -9.7926 -5.6715 0 11.5082 6.1689 3.4583c0.7573,0.4248 1.0287,1.3574 0.6085,2.101 -0.2986,0.5312 -0.7471,0.779 -1.3555,0.779 -0.2491,0 -0.5041,-0.0473 -0.7194,-0.1712l-4.7025 -2.6558 0 6.3384c0,0.8558 -0.6917,1.5226 -1.5492,1.5226l-0.0242 -0.0003z"/>
  <path class="fil1 str0" d="M32.0207 33.7855c-2.5159,0 -4.6851,0.8946 -6.4779,2.6899 -1.7928,1.7954 -2.6899,3.9608 -2.6899,6.4779 0,2.5418 0.8971,4.7134 2.6899,6.5087 1.7929,1.7892 3.9621,2.6899 6.4779,2.6899l0.0607 -0.0004 0 3.1774 -0.0607 0.0003c-3.413,0 -6.3477,-1.1969 -8.7624,-3.6152 -2.4147,-2.4123 -3.6153,-5.3489 -3.6153,-8.7606 0,-3.4118 1.2147,-6.336 3.6153,-8.736 2.4289,-2.4246 5.3494,-3.6399 8.7624,-3.6399l0.0607 0.0003 0 3.2081 -0.0607 -0.0004zm-10.8156 -3.9052c0.5781,0.5799 0.5781,1.5917 0,2.258 -0.3764,0.3147 -0.7521,0.4627 -1.1278,0.4627 -0.4343,0 -0.81,-0.1481 -1.1283,-0.4627l-4.9159 -4.917c-0.6231,-0.6231 -0.6651,-1.5917 0,-2.258 0.5781,-0.5738 1.6775,-0.5738 2.2556,0l4.9164 4.917zm-6.1022 11.4813c0.8964,0 1.5905,0.6972 1.5905,1.5917 0,0.8946 -0.694,1.6164 -1.5905,1.6164l-6.9406 0c-0.8963,0 -1.5904,-0.7218 -1.5904,-1.6163 0,-0.8946 0.6941,-1.5918 1.5904,-1.5918l6.9406 0zm-1.0697 17.3546l4.8584 -4.8615c0.665,-0.6663 1.6485,-0.6663 2.3136,0 0.5781,0.5799 0.6231,1.6349 0,2.258l-4.9165 4.9171c-0.607,0.6046 -1.6485,0.6046 -2.2555,0 -0.6651,-0.6664 -0.6651,-1.6535 0,-2.3136zm16.397 1.24c0,-0.8946 0.6941,-1.5917 1.5905,-1.5917l0.0607 0.0012 0 10.1215 -0.0607 0.0013c-0.8964,0 -1.5905,-0.7526 -1.5905,-1.5917l0 -6.9406zm0 -33.9195l0 -6.9406c0,-0.8945 0.6941,-1.5917 1.5905,-1.5917l0.0607 0.0012 0 10.1217 -0.0607 0.0012c-0.8964,0 -1.5905,-0.6972 -1.5905,-1.5918zm1.6936 42.3965l0 -50.9834 0.0242 -0.0003c0.8575,0 1.5492,0.6905 1.5492,1.5462l0 6.2794 4.7025 -2.6558c0.756,-0.425 1.6429,-0.2007 2.0749,0.5548 0.4255,0.7435 0.1117,1.6937 -0.6084,2.1009l-6.169 3.5174 0 11.5081 9.7926 -5.6714 -0.0549 -7.3062c-0.0065,-0.8027 0.664,-1.5463 1.5214,-1.5463 0.8575,0 1.5084,0.6906 1.5214,1.5463l0.0826 5.5357 5.5329 -3.2104c0.7394,-0.4308 1.7103,-0.1771 2.1026,0.5547 0.4108,0.7613 0.1641,1.6879 -0.5535,2.101l-5.5051 3.1809 4.6476 2.7679c0.7472,0.3599 0.9685,1.3514 0.5536,2.1009 -0.3599,0.4722 -0.8304,0.72 -1.3555,0.72 -0.2769,0 -0.5259,-0.0826 -0.7195,-0.2242l-6.1966 -3.6236 -9.8481 5.6714 9.8482 5.7305 6.1966 -3.6295c0.7088,-0.413 1.6424,-0.2537 2.075,0.5017 0.4249,0.7376 0.1936,1.741 -0.5535,2.101l-4.6476 2.7678 5.505 3.181c0.7176,0.4131 1.0074,1.3633 0.5534,2.101 -0.2932,0.4781 -0.7192,0.7201 -1.3,0.7201 -0.3046,0 -0.589,-0.0414 -0.8026,-0.1653l-5.5328 -3.24 -0.0827 5.5652c-0.0129,0.8557 -0.6639,1.5167 -1.5213,1.5167 -0.8575,0 -1.5286,-0.7141 -1.5215,-1.5757l0.0549 -7.2472 -9.7926 -5.6715 0 11.5082 6.1689 3.4583c0.7573,0.4248 1.0287,1.3574 0.6085,2.101 -0.2986,0.5312 -0.7471,0.779 -1.3555,0.779 -0.2491,0 -0.5041,-0.0473 -0.7194,-0.1712l-4.7025 -2.6558 0 6.3384c0,0.8558 -0.6917,1.5226 -1.5492,1.5226l-0.0242 -0.0003z"/>
  <path class="fil1 str0" d="M32.0207 33.7855c-2.5159,0 -4.6851,0.8946 -6.4779,2.6899 -1.7928,1.7954 -2.6899,3.9608 -2.6899,6.4779 0,2.5418 0.8971,4.7134 2.6899,6.5087 1.7929,1.7892 3.9621,2.6899 6.4779,2.6899l0.0607 -0.0004 0 3.1774 -0.0607 0.0003c-3.413,0 -6.3477,-1.1969 -8.7624,-3.6152 -2.4147,-2.4123 -3.6153,-5.3489 -3.6153,-8.7606 0,-3.4118 1.2147,-6.336 3.6153,-8.736 2.4289,-2.4246 5.3494,-3.6399 8.7624,-3.6399l0.0607 0.0003 0 3.2081 -0.0607 -0.0004zm-10.8156 -3.9052c0.5781,0.5799 0.5781,1.5917 0,2.258 -0.3764,0.3147 -0.7521,0.4627 -1.1278,0.4627 -0.4343,0 -0.81,-0.1481 -1.1283,-0.4627l-4.9159 -4.917c-0.6231,-0.6231 -0.6651,-1.5917 0,-2.258 0.5781,-0.5738 1.6775,-0.5738 2.2556,0l4.9164 4.917zm-6.1022 11.4813c0.8964,0 1.5905,0.6972 1.5905,1.5917 0,0.8946 -0.694,1.6164 -1.5905,1.6164l-6.9406 0c-0.8963,0 -1.5904,-0.7218 -1.5904,-1.6163 0,-0.8946 0.6941,-1.5918 1.5904,-1.5918l6.9406 0zm-1.0697 17.3546l4.8584 -4.8615c0.665,-0.6663 1.6485,-0.6663 2.3136,0 0.5781,0.5799 0.6231,1.6349 0,2.258l-4.9165 4.9171c-0.607,0.6046 -1.6485,0.6046 -2.2555,0 -0.6651,-0.6664 -0.6651,-1.6535 0,-2.3136zm16.397 1.24c0,-0.8946 0.6941,-1.5917 1.5905,-1.5917l0.0607 0.0012 0 10.1215 -0.0607 0.0013c-0.8964,0 -1.5905,-0.7526 -1.5905,-1.5917l0 -6.9406zm0 -33.9195l0 -6.9406c0,-0.8945 0.6941,-1.5917 1.5905,-1.5917l0.0607 0.0012 0 10.1217 -0.0607 0.0012c-0.8964,0 -1.5905,-0.6972 -1.5905,-1.5918zm1.6936 42.3965l0 -50.9834 0.0242 -0.0003c0.8575,0 1.5492,0.6905 1.5492,1.5462l0 6.2794 4.7025 -2.6558c0.756,-0.425 1.6429,-0.2007 2.0749,0.5548 0.4255,0.7435 0.1117,1.6937 -0.6084,2.1009l-6.169 3.5174 0 11.5081 9.7926 -5.6714 -0.0549 -7.3062c-0.0065,-0.8027 0.664,-1.5463 1.5214,-1.5463 0.8575,0 1.5084,0.6906 1.5214,1.5463l0.0826 5.5357 5.5329 -3.2104c0.7394,-0.4308 1.7103,-0.1771 2.1026,0.5547 0.4108,0.7613 0.1641,1.6879 -0.5535,2.101l-5.5051 3.1809 4.6476 2.7679c0.7472,0.3599 0.9685,1.3514 0.5536,2.1009 -0.3599,0.4722 -0.8304,0.72 -1.3555,0.72 -0.2769,0 -0.5259,-0.0826 -0.7195,-0.2242l-6.1966 -3.6236 -9.8481 5.6714 9.8482 5.7305 6.1966 -3.6295c0.7088,-0.413 1.6424,-0.2537 2.075,0.5017 0.4249,0.7376 0.1936,1.741 -0.5535,2.101l-4.6476 2.7678 5.505 3.181c0.7176,0.4131 1.0074,1.3633 0.5534,2.101 -0.2932,0.4781 -0.7192,0.7201 -1.3,0.7201 -0.3046,0 -0.589,-0.0414 -0.8026,-0.1653l-5.5328 -3.24 -0.0827 5.5652c-0.0129,0.8557 -0.6639,1.5167 -1.5213,1.5167 -0.8575,0 -1.5286,-0.7141 -1.5215,-1.5757l0.0549 -7.2472 -9.7926 -5.6715 0 11.5082 6.1689 3.4583c0.7573,0.4248 1.0287,1.3574 0.6085,2.101 -0.2986,0.5312 -0.7471,0.779 -1.3555,0.779 -0.2491,0 -0.5041,-0.0473 -0.7194,-0.1712l-4.7025 -2.6558 0 6.3384c0,0.8558 -0.6917,1.5226 -1.5492,1.5226l-0.0242 -0.0003z"/>
  <path class="fil1 str0" d="M32.0207 33.7855c-2.5159,0 -4.6851,0.8946 -6.4779,2.6899 -1.7928,1.7954 -2.6899,3.9608 -2.6899,6.4779 0,2.5418 0.8971,4.7134 2.6899,6.5087 1.7929,1.7892 3.9621,2.6899 6.4779,2.6899l0.0607 -0.0004 0 3.1774 -0.0607 0.0003c-3.413,0 -6.3477,-1.1969 -8.7624,-3.6152 -2.4147,-2.4123 -3.6153,-5.3489 -3.6153,-8.7606 0,-3.4118 1.2147,-6.336 3.6153,-8.736 2.4289,-2.4246 5.3494,-3.6399 8.7624,-3.6399l0.0607 0.0003 0 3.2081 -0.0607 -0.0004zm-10.8156 -3.9052c0.5781,0.5799 0.5781,1.5917 0,2.258 -0.3764,0.3147 -0.7521,0.4627 -1.1278,0.4627 -0.4343,0 -0.81,-0.1481 -1.1283,-0.4627l-4.9159 -4.917c-0.6231,-0.6231 -0.6651,-1.5917 0,-2.258 0.5781,-0.5738 1.6775,-0.5738 2.2556,0l4.9164 4.917zm-6.1022 11.4813c0.8964,0 1.5905,0.6972 1.5905,1.5917 0,0.8946 -0.694,1.6164 -1.5905,1.6164l-6.9406 0c-0.8963,0 -1.5904,-0.7218 -1.5904,-1.6163 0,-0.8946 0.6941,-1.5918 1.5904,-1.5918l6.9406 0zm-1.0697 17.3546l4.8584 -4.8615c0.665,-0.6663 1.6485,-0.6663 2.3136,0 0.5781,0.5799 0.6231,1.6349 0,2.258l-4.9165 4.9171c-0.607,0.6046 -1.6485,0.6046 -2.2555,0 -0.6651,-0.6664 -0.6651,-1.6535 0,-2.3136zm16.397 1.24c0,-0.8946 0.6941,-1.5917 1.5905,-1.5917l0.0607 0.0012 0 10.1215 -0.0607 0.0013c-0.8964,0 -1.5905,-0.7526 -1.5905,-1.5917l0 -6.9406zm0 -33.9195l0 -6.9406c0,-0.8945 0.6941,-1.5917 1.5905,-1.5917l0.0607 0.0012 0 10.1217 -0.0607 0.0012c-0.8964,0 -1.5905,-0.6972 -1.5905,-1.5918zm1.6936 42.3965l0 -50.9834 0.0242 -0.0003c0.8575,0 1.5492,0.6905 1.5492,1.5462l0 6.2794 4.7025 -2.6558c0.756,-0.425 1.6429,-0.2007 2.0749,0.5548 0.4255,0.7435 0.1117,1.6937 -0.6084,2.1009l-6.169 3.5174 0 11.5081 9.7926 -5.6714 -0.0549 -7.3062c-0.0065,-0.8027 0.664,-1.5463 1.5214,-1.5463 0.8575,0 1.5084,0.6906 1.5214,1.5463l0.0826 5.5357 5.5329 -3.2104c0.7394,-0.4308 1.7103,-0.1771 2.1026,0.5547 0.4108,0.7613 0.1641,1.6879 -0.5535,2.101l-5.5051 3.1809 4.6476 2.7679c0.7472,0.3599 0.9685,1.3514 0.5536,2.1009 -0.3599,0.4722 -0.8304,0.72 -1.3555,0.72 -0.2769,0 -0.5259,-0.0826 -0.7195,-0.2242l-6.1966 -3.6236 -9.8481 5.6714 9.8482 5.7305 6.1966 -3.6295c0.7088,-0.413 1.6424,-0.2537 2.075,0.5017 0.4249,0.7376 0.1936,1.741 -0.5535,2.101l-4.6476 2.7678 5.505 3.181c0.7176,0.4131 1.0074,1.3633 0.5534,2.101 -0.2932,0.4781 -0.7192,0.7201 -1.3,0.7201 -0.3046,0 -0.589,-0.0414 -0.8026,-0.1653l-5.5328 -3.24 -0.0827 5.5652c-0.0129,0.8557 -0.6639,1.5167 -1.5213,1.5167 -0.8575,0 -1.5286,-0.7141 -1.5215,-1.5757l0.0549 -7.2472 -9.7926 -5.6715 0 11.5082 6.1689 3.4583c0.7573,0.4248 1.0287,1.3574 0.6085,2.101 -0.2986,0.5312 -0.7471,0.779 -1.3555,0.779 -0.2491,0 -0.5041,-0.0473 -0.7194,-0.1712l-4.7025 -2.6558 0 6.3384c0,0.8558 -0.6917,1.5226 -1.5492,1.5226l-0.0242 -0.0003z"/>
  <path class="fil1 str0" d="M32.0207 33.7855c-2.5159,0 -4.6851,0.8946 -6.4779,2.6899 -1.7928,1.7954 -2.6899,3.9608 -2.6899,6.4779 0,2.5418 0.8971,4.7134 2.6899,6.5087 1.7929,1.7892 3.9621,2.6899 6.4779,2.6899l0.0607 -0.0004 0 3.1774 -0.0607 0.0003c-3.413,0 -6.3477,-1.1969 -8.7624,-3.6152 -2.4147,-2.4123 -3.6153,-5.3489 -3.6153,-8.7606 0,-3.4118 1.2147,-6.336 3.6153,-8.736 2.4289,-2.4246 5.3494,-3.6399 8.7624,-3.6399l0.0607 0.0003 0 3.2081 -0.0607 -0.0004zm-10.8156 -3.9052c0.5781,0.5799 0.5781,1.5917 0,2.258 -0.3764,0.3147 -0.7521,0.4627 -1.1278,0.4627 -0.4343,0 -0.81,-0.1481 -1.1283,-0.4627l-4.9159 -4.917c-0.6231,-0.6231 -0.6651,-1.5917 0,-2.258 0.5781,-0.5738 1.6775,-0.5738 2.2556,0l4.9164 4.917zm-6.1022 11.4813c0.8964,0 1.5905,0.6972 1.5905,1.5917 0,0.8946 -0.694,1.6164 -1.5905,1.6164l-6.9406 0c-0.8963,0 -1.5904,-0.7218 -1.5904,-1.6163 0,-0.8946 0.6941,-1.5918 1.5904,-1.5918l6.9406 0zm-1.0697 17.3546l4.8584 -4.8615c0.665,-0.6663 1.6485,-0.6663 2.3136,0 0.5781,0.5799 0.6231,1.6349 0,2.258l-4.9165 4.9171c-0.607,0.6046 -1.6485,0.6046 -2.2555,0 -0.6651,-0.6664 -0.6651,-1.6535 0,-2.3136zm16.397 1.24c0,-0.8946 0.6941,-1.5917 1.5905,-1.5917l0.0607 0.0012 0 10.1215 -0.0607 0.0013c-0.8964,0 -1.5905,-0.7526 -1.5905,-1.5917l0 -6.9406zm0 -33.9195l0 -6.9406c0,-0.8945 0.6941,-1.5917 1.5905,-1.5917l0.0607 0.0012 0 10.1217 -0.0607 0.0012c-0.8964,0 -1.5905,-0.6972 -1.5905,-1.5918zm1.6936 42.3965l0 -50.9834 0.0242 -0.0003c0.8575,0 1.5492,0.6905 1.5492,1.5462l0 6.2794 4.7025 -2.6558c0.756,-0.425 1.6429,-0.2007 2.0749,0.5548 0.4255,0.7435 0.1117,1.6937 -0.6084,2.1009l-6.169 3.5174 0 11.5081 9.7926 -5.6714 -0.0549 -7.3062c-0.0065,-0.8027 0.664,-1.5463 1.5214,-1.5463 0.8575,0 1.5084,0.6906 1.5214,1.5463l0.0826 5.5357 5.5329 -3.2104c0.7394,-0.4308 1.7103,-0.1771 2.1026,0.5547 0.4108,0.7613 0.1641,1.6879 -0.5535,2.101l-5.5051 3.1809 4.6476 2.7679c0.7472,0.3599 0.9685,1.3514 0.5536,2.1009 -0.3599,0.4722 -0.8304,0.72 -1.3555,0.72 -0.2769,0 -0.5259,-0.0826 -0.7195,-0.2242l-6.1966 -3.6236 -9.8481 5.6714 9.8482 5.7305 6.1966 -3.6295c0.7088,-0.413 1.6424,-0.2537 2.075,0.5017 0.4249,0.7376 0.1936,1.741 -0.5535,2.101l-4.6476 2.7678 5.505 3.181c0.7176,0.4131 1.0074,1.3633 0.5534,2.101 -0.2932,0.4781 -0.7192,0.7201 -1.3,0.7201 -0.3046,0 -0.589,-0.0414 -0.8026,-0.1653l-5.5328 -3.24 -0.0827 5.5652c-0.0129,0.8557 -0.6639,1.5167 -1.5213,1.5167 -0.8575,0 -1.5286,-0.7141 -1.5215,-1.5757l0.0549 -7.2472 -9.7926 -5.6715 0 11.5082 6.1689 3.4583c0.7573,0.4248 1.0287,1.3574 0.6085,2.101 -0.2986,0.5312 -0.7471,0.779 -1.3555,0.779 -0.2491,0 -0.5041,-0.0473 -0.7194,-0.1712l-4.7025 -2.6558 0 6.3384c0,0.8558 -0.6917,1.5226 -1.5492,1.5226l-0.0242 -0.0003z"/>
  <path class="fil0 str0" d="M32.0207 33.7855c-2.5159,0 -4.6851,0.8946 -6.4779,2.6899 -1.7928,1.7954 -2.6899,3.9608 -2.6899,6.4779 0,2.5418 0.8971,4.7134 2.6899,6.5087 1.7929,1.7892 3.9621,2.6899 6.4779,2.6899l0.0607 -0.0004 0 3.1774 -0.0607 0.0003c-3.413,0 -6.3477,-1.1969 -8.7624,-3.6152 -2.4147,-2.4123 -3.6153,-5.3489 -3.6153,-8.7606 0,-3.4118 1.2147,-6.336 3.6153,-8.736 2.4289,-2.4246 5.3494,-3.6399 8.7624,-3.6399l0.0607 0.0003 0 3.2081 -0.0607 -0.0004zm-10.8156 -3.9052c0.5781,0.5799 0.5781,1.5917 0,2.258 -0.3764,0.3147 -0.7521,0.4627 -1.1278,0.4627 -0.4343,0 -0.81,-0.1481 -1.1283,-0.4627l-4.9159 -4.917c-0.6231,-0.6231 -0.6651,-1.5917 0,-2.258 0.5781,-0.5738 1.6775,-0.5738 2.2556,0l4.9164 4.917zm-6.1022 11.4813c0.8964,0 1.5905,0.6972 1.5905,1.5917 0,0.8946 -0.694,1.6164 -1.5905,1.6164l-6.9406 0c-0.8963,0 -1.5904,-0.7218 -1.5904,-1.6163 0,-0.8946 0.6941,-1.5918 1.5904,-1.5918l6.9406 0zm-1.0697 17.3546l4.8584 -4.8615c0.665,-0.6663 1.6485,-0.6663 2.3136,0 0.5781,0.5799 0.6231,1.6349 0,2.258l-4.9165 4.9171c-0.607,0.6046 -1.6485,0.6046 -2.2555,0 -0.6651,-0.6664 -0.6651,-1.6535 0,-2.3136zm16.397 1.24c0,-0.8946 0.6941,-1.5917 1.5905,-1.5917l0.0607 0.0012 0 10.1215 -0.0607 0.0013c-0.8964,0 -1.5905,-0.7526 -1.5905,-1.5917l0 -6.9406zm0 -33.9195l0 -6.9406c0,-0.8945 0.6941,-1.5917 1.5905,-1.5917l0.0607 0.0012 0 10.1217 -0.0607 0.0012c-0.8964,0 -1.5905,-0.6972 -1.5905,-1.5918zm1.6936 42.3965l0 -50.9834 0.0242 -0.0003c0.8575,0 1.5492,0.6905 1.5492,1.5462l0 6.2794 4.7025 -2.6558c0.756,-0.425 1.6429,-0.2007 2.0749,0.5548 0.4255,0.7435 0.1117,1.6937 -0.6084,2.1009l-6.169 3.5174 0 11.5081 9.7926 -5.6714 -0.0549 -7.3062c-0.0065,-0.8027 0.664,-1.5463 1.5214,-1.5463 0.8575,0 1.5084,0.6906 1.5214,1.5463l0.0826 5.5357 5.5329 -3.2104c0.7394,-0.4308 1.7103,-0.1771 2.1026,0.5547 0.4108,0.7613 0.1641,1.6879 -0.5535,2.101l-5.5051 3.1809 4.6476 2.7679c0.7472,0.3599 0.9685,1.3514 0.5536,2.1009 -0.3599,0.4722 -0.8304,0.72 -1.3555,0.72 -0.2769,0 -0.5259,-0.0826 -0.7195,-0.2242l-6.1966 -3.6236 -9.8481 5.6714 9.8482 5.7305 6.1966 -3.6295c0.7088,-0.413 1.6424,-0.2537 2.075,0.5017 0.4249,0.7376 0.1936,1.741 -0.5535,2.101l-4.6476 2.7678 5.505 3.181c0.7176,0.4131 1.0074,1.3633 0.5534,2.101 -0.2932,0.4781 -0.7192,0.7201 -1.3,0.7201 -0.3046,0 -0.589,-0.0414 -0.8026,-0.1653l-5.5328 -3.24 -0.0827 5.5652c-0.0129,0.8557 -0.6639,1.5167 -1.5213,1.5167 -0.8575,0 -1.5286,-0.7141 -1.5215,-1.5757l0.0549 -7.2472 -9.7926 -5.6715 0 11.5082 6.1689 3.4583c0.7573,0.4248 1.0287,1.3574 0.6085,2.101 -0.2986,0.5312 -0.7471,0.779 -1.3555,0.779 -0.2491,0 -0.5041,-0.0473 -0.7194,-0.1712l-4.7025 -2.6558 0 6.3384c0,0.8558 -0.6917,1.5226 -1.5492,1.5226l-0.0242 -0.0003z"/>
  <path class="fil0 str0" d="M32.0207 33.7855c-2.5159,0 -4.6851,0.8946 -6.4779,2.6899 -1.7928,1.7954 -2.6899,3.9608 -2.6899,6.4779 0,2.5418 0.8971,4.7134 2.6899,6.5087 1.7929,1.7892 3.9621,2.6899 6.4779,2.6899l0.0607 -0.0004 0 3.1774 -0.0607 0.0003c-3.413,0 -6.3477,-1.1969 -8.7624,-3.6152 -2.4147,-2.4123 -3.6153,-5.3489 -3.6153,-8.7606 0,-3.4118 1.2147,-6.336 3.6153,-8.736 2.4289,-2.4246 5.3494,-3.6399 8.7624,-3.6399l0.0607 0.0003 0 3.2081 -0.0607 -0.0004zm-10.8156 -3.9052c0.5781,0.5799 0.5781,1.5917 0,2.258 -0.3764,0.3147 -0.7521,0.4627 -1.1278,0.4627 -0.4343,0 -0.81,-0.1481 -1.1283,-0.4627l-4.9159 -4.917c-0.6231,-0.6231 -0.6651,-1.5917 0,-2.258 0.5781,-0.5738 1.6775,-0.5738 2.2556,0l4.9164 4.917zm-6.1022 11.4813c0.8964,0 1.5905,0.6972 1.5905,1.5917 0,0.8946 -0.694,1.6164 -1.5905,1.6164l-6.9406 0c-0.8963,0 -1.5904,-0.7218 -1.5904,-1.6163 0,-0.8946 0.6941,-1.5918 1.5904,-1.5918l6.9406 0zm-1.0697 17.3546l4.8584 -4.8615c0.665,-0.6663 1.6485,-0.6663 2.3136,0 0.5781,0.5799 0.6231,1.6349 0,2.258l-4.9165 4.9171c-0.607,0.6046 -1.6485,0.6046 -2.2555,0 -0.6651,-0.6664 -0.6651,-1.6535 0,-2.3136zm16.397 1.24c0,-0.8946 0.6941,-1.5917 1.5905,-1.5917l0.0607 0.0012 0 10.1215 -0.0607 0.0013c-0.8964,0 -1.5905,-0.7526 -1.5905,-1.5917l0 -6.9406zm0 -33.9195l0 -6.9406c0,-0.8945 0.6941,-1.5917 1.5905,-1.5917l0.0607 0.0012 0 10.1217 -0.0607 0.0012c-0.8964,0 -1.5905,-0.6972 -1.5905,-1.5918zm1.6936 42.3965l0 -50.9834 0.0242 -0.0003c0.8575,0 1.5492,0.6905 1.5492,1.5462l0 6.2794 4.7025 -2.6558c0.756,-0.425 1.6429,-0.2007 2.0749,0.5548 0.4255,0.7435 0.1117,1.6937 -0.6084,2.1009l-6.169 3.5174 0 11.5081 9.7926 -5.6714 -0.0549 -7.3062c-0.0065,-0.8027 0.664,-1.5463 1.5214,-1.5463 0.8575,0 1.5084,0.6906 1.5214,1.5463l0.0826 5.5357 5.5329 -3.2104c0.7394,-0.4308 1.7103,-0.1771 2.1026,0.5547 0.4108,0.7613 0.1641,1.6879 -0.5535,2.101l-5.5051 3.1809 4.6476 2.7679c0.7472,0.3599 0.9685,1.3514 0.5536,2.1009 -0.3599,0.4722 -0.8304,0.72 -1.3555,0.72 -0.2769,0 -0.5259,-0.0826 -0.7195,-0.2242l-6.1966 -3.6236 -9.8481 5.6714 9.8482 5.7305 6.1966 -3.6295c0.7088,-0.413 1.6424,-0.2537 2.075,0.5017 0.4249,0.7376 0.1936,1.741 -0.5535,2.101l-4.6476 2.7678 5.505 3.181c0.7176,0.4131 1.0074,1.3633 0.5534,2.101 -0.2932,0.4781 -0.7192,0.7201 -1.3,0.7201 -0.3046,0 -0.589,-0.0414 -0.8026,-0.1653l-5.5328 -3.24 -0.0827 5.5652c-0.0129,0.8557 -0.6639,1.5167 -1.5213,1.5167 -0.8575,0 -1.5286,-0.7141 -1.5215,-1.5757l0.0549 -7.2472 -9.7926 -5.6715 0 11.5082 6.1689 3.4583c0.7573,0.4248 1.0287,1.3574 0.6085,2.101 -0.2986,0.5312 -0.7471,0.779 -1.3555,0.779 -0.2491,0 -0.5041,-0.0473 -0.7194,-0.1712l-4.7025 -2.6558 0 6.3384c0,0.8558 -0.6917,1.5226 -1.5492,1.5226l-0.0242 -0.0003z"/>
  <path class="fil0 str0" d="M32.0207 33.7855c-2.5159,0 -4.6851,0.8946 -6.4779,2.6899 -1.7928,1.7954 -2.6899,3.9608 -2.6899,6.4779 0,2.5418 0.8971,4.7134 2.6899,6.5087 1.7929,1.7892 3.9621,2.6899 6.4779,2.6899l0.0607 -0.0004 0 3.1774 -0.0607 0.0003c-3.413,0 -6.3477,-1.1969 -8.7624,-3.6152 -2.4147,-2.4123 -3.6153,-5.3489 -3.6153,-8.7606 0,-3.4118 1.2147,-6.336 3.6153,-8.736 2.4289,-2.4246 5.3494,-3.6399 8.7624,-3.6399l0.0607 0.0003 0 3.2081 -0.0607 -0.0004zm-10.8156 -3.9052c0.5781,0.5799 0.5781,1.5917 0,2.258 -0.3764,0.3147 -0.7521,0.4627 -1.1278,0.4627 -0.4343,0 -0.81,-0.1481 -1.1283,-0.4627l-4.9159 -4.917c-0.6231,-0.6231 -0.6651,-1.5917 0,-2.258 0.5781,-0.5738 1.6775,-0.5738 2.2556,0l4.9164 4.917zm-6.1022 11.4813c0.8964,0 1.5905,0.6972 1.5905,1.5917 0,0.8946 -0.694,1.6164 -1.5905,1.6164l-6.9406 0c-0.8963,0 -1.5904,-0.7218 -1.5904,-1.6163 0,-0.8946 0.6941,-1.5918 1.5904,-1.5918l6.9406 0zm-1.0697 17.3546l4.8584 -4.8615c0.665,-0.6663 1.6485,-0.6663 2.3136,0 0.5781,0.5799 0.6231,1.6349 0,2.258l-4.9165 4.9171c-0.607,0.6046 -1.6485,0.6046 -2.2555,0 -0.6651,-0.6664 -0.6651,-1.6535 0,-2.3136zm16.397 1.24c0,-0.8946 0.6941,-1.5917 1.5905,-1.5917l0.0607 0.0012 0 10.1215 -0.0607 0.0013c-0.8964,0 -1.5905,-0.7526 -1.5905,-1.5917l0 -6.9406zm0 -33.9195l0 -6.9406c0,-0.8945 0.6941,-1.5917 1.5905,-1.5917l0.0607 0.0012 0 10.1217 -0.0607 0.0012c-0.8964,0 -1.5905,-0.6972 -1.5905,-1.5918zm1.6936 42.3965l0 -50.9834 0.0242 -0.0003c0.8575,0 1.5492,0.6905 1.5492,1.5462l0 6.2794 4.7025 -2.6558c0.756,-0.425 1.6429,-0.2007 2.0749,0.5548 0.4255,0.7435 0.1117,1.6937 -0.6084,2.1009l-6.169 3.5174 0 11.5081 9.7926 -5.6714 -0.0549 -7.3062c-0.0065,-0.8027 0.664,-1.5463 1.5214,-1.5463 0.8575,0 1.5084,0.6906 1.5214,1.5463l0.0826 5.5357 5.5329 -3.2104c0.7394,-0.4308 1.7103,-0.1771 2.1026,0.5547 0.4108,0.7613 0.1641,1.6879 -0.5535,2.101l-5.5051 3.1809 4.6476 2.7679c0.7472,0.3599 0.9685,1.3514 0.5536,2.1009 -0.3599,0.4722 -0.8304,0.72 -1.3555,0.72 -0.2769,0 -0.5259,-0.0826 -0.7195,-0.2242l-6.1966 -3.6236 -9.8481 5.6714 9.8482 5.7305 6.1966 -3.6295c0.7088,-0.413 1.6424,-0.2537 2.075,0.5017 0.4249,0.7376 0.1936,1.741 -0.5535,2.101l-4.6476 2.7678 5.505 3.181c0.7176,0.4131 1.0074,1.3633 0.5534,2.101 -0.2932,0.4781 -0.7192,0.7201 -1.3,0.7201 -0.3046,0 -0.589,-0.0414 -0.8026,-0.1653l-5.5328 -3.24 -0.0827 5.5652c-0.0129,0.8557 -0.6639,1.5167 -1.5213,1.5167 -0.8575,0 -1.5286,-0.7141 -1.5215,-1.5757l0.0549 -7.2472 -9.7926 -5.6715 0 11.5082 6.1689 3.4583c0.7573,0.4248 1.0287,1.3574 0.6085,2.101 -0.2986,0.5312 -0.7471,0.779 -1.3555,0.779 -0.2491,0 -0.5041,-0.0473 -0.7194,-0.1712l-4.7025 -2.6558 0 6.3384c0,0.8558 -0.6917,1.5226 -1.5492,1.5226l-0.0242 -0.0003z"/>
  <path class="fil0 str0" d="M32.0207 33.7855c-2.5159,0 -4.6851,0.8946 -6.4779,2.6899 -1.7928,1.7954 -2.6899,3.9608 -2.6899,6.4779 0,2.5418 0.8971,4.7134 2.6899,6.5087 1.7929,1.7892 3.9621,2.6899 6.4779,2.6899l0.0607 -0.0004 0 3.1774 -0.0607 0.0003c-3.413,0 -6.3477,-1.1969 -8.7624,-3.6152 -2.4147,-2.4123 -3.6153,-5.3489 -3.6153,-8.7606 0,-3.4118 1.2147,-6.336 3.6153,-8.736 2.4289,-2.4246 5.3494,-3.6399 8.7624,-3.6399l0.0607 0.0003 0 3.2081 -0.0607 -0.0004zm-10.8156 -3.9052c0.5781,0.5799 0.5781,1.5917 0,2.258 -0.3764,0.3147 -0.7521,0.4627 -1.1278,0.4627 -0.4343,0 -0.81,-0.1481 -1.1283,-0.4627l-4.9159 -4.917c-0.6231,-0.6231 -0.6651,-1.5917 0,-2.258 0.5781,-0.5738 1.6775,-0.5738 2.2556,0l4.9164 4.917zm-6.1022 11.4813c0.8964,0 1.5905,0.6972 1.5905,1.5917 0,0.8946 -0.694,1.6164 -1.5905,1.6164l-6.9406 0c-0.8963,0 -1.5904,-0.7218 -1.5904,-1.6163 0,-0.8946 0.6941,-1.5918 1.5904,-1.5918l6.9406 0zm-1.0697 17.3546l4.8584 -4.8615c0.665,-0.6663 1.6485,-0.6663 2.3136,0 0.5781,0.5799 0.6231,1.6349 0,2.258l-4.9165 4.9171c-0.607,0.6046 -1.6485,0.6046 -2.2555,0 -0.6651,-0.6664 -0.6651,-1.6535 0,-2.3136zm16.397 1.24c0,-0.8946 0.6941,-1.5917 1.5905,-1.5917l0.0607 0.0012 0 10.1215 -0.0607 0.0013c-0.8964,0 -1.5905,-0.7526 -1.5905,-1.5917l0 -6.9406zm0 -33.9195l0 -6.9406c0,-0.8945 0.6941,-1.5917 1.5905,-1.5917l0.0607 0.0012 0 10.1217 -0.0607 0.0012c-0.8964,0 -1.5905,-0.6972 -1.5905,-1.5918zm1.6936 42.3965l0 -50.9834 0.0242 -0.0003c0.8575,0 1.5492,0.6905 1.5492,1.5462l0 6.2794 4.7025 -2.6558c0.756,-0.425 1.6429,-0.2007 2.0749,0.5548 0.4255,0.7435 0.1117,1.6937 -0.6084,2.1009l-6.169 3.5174 0 11.5081 9.7926 -5.6714 -0.0549 -7.3062c-0.0065,-0.8027 0.664,-1.5463 1.5214,-1.5463 0.8575,0 1.5084,0.6906 1.5214,1.5463l0.0826 5.5357 5.5329 -3.2104c0.7394,-0.4308 1.7103,-0.1771 2.1026,0.5547 0.4108,0.7613 0.1641,1.6879 -0.5535,2.101l-5.5051 3.1809 4.6476 2.7679c0.7472,0.3599 0.9685,1.3514 0.5536,2.1009 -0.3599,0.4722 -0.8304,0.72 -1.3555,0.72 -0.2769,0 -0.5259,-0.0826 -0.7195,-0.2242l-6.1966 -3.6236 -9.8481 5.6714 9.8482 5.7305 6.1966 -3.6295c0.7088,-0.413 1.6424,-0.2537 2.075,0.5017 0.4249,0.7376 0.1936,1.741 -0.5535,2.101l-4.6476 2.7678 5.505 3.181c0.7176,0.4131 1.0074,1.3633 0.5534,2.101 -0.2932,0.4781 -0.7192,0.7201 -1.3,0.7201 -0.3046,0 -0.589,-0.0414 -0.8026,-0.1653l-5.5328 -3.24 -0.0827 5.5652c-0.0129,0.8557 -0.6639,1.5167 -1.5213,1.5167 -0.8575,0 -1.5286,-0.7141 -1.5215,-1.5757l0.0549 -7.2472 -9.7926 -5.6715 0 11.5082 6.1689 3.4583c0.7573,0.4248 1.0287,1.3574 0.6085,2.101 -0.2986,0.5312 -0.7471,0.779 -1.3555,0.779 -0.2491,0 -0.5041,-0.0473 -0.7194,-0.1712l-4.7025 -2.6558 0 6.3384c0,0.8558 -0.6917,1.5226 -1.5492,1.5226l-0.0242 -0.0003z"/>
  <path class="fil0 str0" d="M32.0207 33.7855c-2.5159,0 -4.6851,0.8946 -6.4779,2.6899 -1.7928,1.7954 -2.6899,3.9608 -2.6899,6.4779 0,2.5418 0.8971,4.7134 2.6899,6.5087 1.7929,1.7892 3.9621,2.6899 6.4779,2.6899l0.0607 -0.0004 0 3.1774 -0.0607 0.0003c-3.413,0 -6.3477,-1.1969 -8.7624,-3.6152 -2.4147,-2.4123 -3.6153,-5.3489 -3.6153,-8.7606 0,-3.4118 1.2147,-6.336 3.6153,-8.736 2.4289,-2.4246 5.3494,-3.6399 8.7624,-3.6399l0.0607 0.0003 0 3.2081 -0.0607 -0.0004zm-10.8156 -3.9052c0.5781,0.5799 0.5781,1.5917 0,2.258 -0.3764,0.3147 -0.7521,0.4627 -1.1278,0.4627 -0.4343,0 -0.81,-0.1481 -1.1283,-0.4627l-4.9159 -4.917c-0.6231,-0.6231 -0.6651,-1.5917 0,-2.258 0.5781,-0.5738 1.6775,-0.5738 2.2556,0l4.9164 4.917zm-6.1022 11.4813c0.8964,0 1.5905,0.6972 1.5905,1.5917 0,0.8946 -0.694,1.6164 -1.5905,1.6164l-6.9406 0c-0.8963,0 -1.5904,-0.7218 -1.5904,-1.6163 0,-0.8946 0.6941,-1.5918 1.5904,-1.5918l6.9406 0zm-1.0697 17.3546l4.8584 -4.8615c0.665,-0.6663 1.6485,-0.6663 2.3136,0 0.5781,0.5799 0.6231,1.6349 0,2.258l-4.9165 4.9171c-0.607,0.6046 -1.6485,0.6046 -2.2555,0 -0.6651,-0.6664 -0.6651,-1.6535 0,-2.3136zm16.397 1.24c0,-0.8946 0.6941,-1.5917 1.5905,-1.5917l0.0607 0.0012 0 10.1215 -0.0607 0.0013c-0.8964,0 -1.5905,-0.7526 -1.5905,-1.5917l0 -6.9406zm0 -33.9195l0 -6.9406c0,-0.8945 0.6941,-1.5917 1.5905,-1.5917l0.0607 0.0012 0 10.1217 -0.0607 0.0012c-0.8964,0 -1.5905,-0.6972 -1.5905,-1.5918zm1.6936 42.3965l0 -50.9834 0.0242 -0.0003c0.8575,0 1.5492,0.6905 1.5492,1.5462l0 6.2794 4.7025 -2.6558c0.756,-0.425 1.6429,-0.2007 2.0749,0.5548 0.4255,0.7435 0.1117,1.6937 -0.6084,2.1009l-6.169 3.5174 0 11.5081 9.7926 -5.6714 -0.0549 -7.3062c-0.0065,-0.8027 0.664,-1.5463 1.5214,-1.5463 0.8575,0 1.5084,0.6906 1.5214,1.5463l0.0826 5.5357 5.5329 -3.2104c0.7394,-0.4308 1.7103,-0.1771 2.1026,0.5547 0.4108,0.7613 0.1641,1.6879 -0.5535,2.101l-5.5051 3.1809 4.6476 2.7679c0.7472,0.3599 0.9685,1.3514 0.5536,2.1009 -0.3599,0.4722 -0.8304,0.72 -1.3555,0.72 -0.2769,0 -0.5259,-0.0826 -0.7195,-0.2242l-6.1966 -3.6236 -9.8481 5.6714 9.8482 5.7305 6.1966 -3.6295c0.7088,-0.413 1.6424,-0.2537 2.075,0.5017 0.4249,0.7376 0.1936,1.741 -0.5535,2.101l-4.6476 2.7678 5.505 3.181c0.7176,0.4131 1.0074,1.3633 0.5534,2.101 -0.2932,0.4781 -0.7192,0.7201 -1.3,0.7201 -0.3046,0 -0.589,-0.0414 -0.8026,-0.1653l-5.5328 -3.24 -0.0827 5.5652c-0.0129,0.8557 -0.6639,1.5167 -1.5213,1.5167 -0.8575,0 -1.5286,-0.7141 -1.5215,-1.5757l0.0549 -7.2472 -9.7926 -5.6715 0 11.5082 6.1689 3.4583c0.7573,0.4248 1.0287,1.3574 0.6085,2.101 -0.2986,0.5312 -0.7471,0.779 -1.3555,0.779 -0.2491,0 -0.5041,-0.0473 -0.7194,-0.1712l-4.7025 -2.6558 0 6.3384c0,0.8558 -0.6917,1.5226 -1.5492,1.5226l-0.0242 -0.0003z"/>
  <path class="fil0 str0" d="M32.0207 33.7855c-2.5159,0 -4.6851,0.8946 -6.4779,2.6899 -1.7928,1.7954 -2.6899,3.9608 -2.6899,6.4779 0,2.5418 0.8971,4.7134 2.6899,6.5087 1.7929,1.7892 3.9621,2.6899 6.4779,2.6899l0.0607 -0.0004 0 3.1774 -0.0607 0.0003c-3.413,0 -6.3477,-1.1969 -8.7624,-3.6152 -2.4147,-2.4123 -3.6153,-5.3489 -3.6153,-8.7606 0,-3.4118 1.2147,-6.336 3.6153,-8.736 2.4289,-2.4246 5.3494,-3.6399 8.7624,-3.6399l0.0607 0.0003 0 3.2081 -0.0607 -0.0004zm-10.8156 -3.9052c0.5781,0.5799 0.5781,1.5917 0,2.258 -0.3764,0.3147 -0.7521,0.4627 -1.1278,0.4627 -0.4343,0 -0.81,-0.1481 -1.1283,-0.4627l-4.9159 -4.917c-0.6231,-0.6231 -0.6651,-1.5917 0,-2.258 0.5781,-0.5738 1.6775,-0.5738 2.2556,0l4.9164 4.917zm-6.1022 11.4813c0.8964,0 1.5905,0.6972 1.5905,1.5917 0,0.8946 -0.694,1.6164 -1.5905,1.6164l-6.9406 0c-0.8963,0 -1.5904,-0.7218 -1.5904,-1.6163 0,-0.8946 0.6941,-1.5918 1.5904,-1.5918l6.9406 0zm-1.0697 17.3546l4.8584 -4.8615c0.665,-0.6663 1.6485,-0.6663 2.3136,0 0.5781,0.5799 0.6231,1.6349 0,2.258l-4.9165 4.9171c-0.607,0.6046 -1.6485,0.6046 -2.2555,0 -0.6651,-0.6664 -0.6651,-1.6535 0,-2.3136zm16.397 1.24c0,-0.8946 0.6941,-1.5917 1.5905,-1.5917l0.0607 0.0012 0 10.1215 -0.0607 0.0013c-0.8964,0 -1.5905,-0.7526 -1.5905,-1.5917l0 -6.9406zm0 -33.9195l0 -6.9406c0,-0.8945 0.6941,-1.5917 1.5905,-1.5917l0.0607 0.0012 0 10.1217 -0.0607 0.0012c-0.8964,0 -1.5905,-0.6972 -1.5905,-1.5918zm1.6936 42.3965l0 -50.9834 0.0242 -0.0003c0.8575,0 1.5492,0.6905 1.5492,1.5462l0 6.2794 4.7025 -2.6558c0.756,-0.425 1.6429,-0.2007 2.0749,0.5548 0.4255,0.7435 0.1117,1.6937 -0.6084,2.1009l-6.169 3.5174 0 11.5081 9.7926 -5.6714 -0.0549 -7.3062c-0.0065,-0.8027 0.664,-1.5463 1.5214,-1.5463 0.8575,0 1.5084,0.6906 1.5214,1.5463l0.0826 5.5357 5.5329 -3.2104c0.7394,-0.4308 1.7103,-0.1771 2.1026,0.5547 0.4108,0.7613 0.1641,1.6879 -0.5535,2.101l-5.5051 3.1809 4.6476 2.7679c0.7472,0.3599 0.9685,1.3514 0.5536,2.1009 -0.3599,0.4722 -0.8304,0.72 -1.3555,0.72 -0.2769,0 -0.5259,-0.0826 -0.7195,-0.2242l-6.1966 -3.6236 -9.8481 5.6714 9.8482 5.7305 6.1966 -3.6295c0.7088,-0.413 1.6424,-0.2537 2.075,0.5017 0.4249,0.7376 0.1936,1.741 -0.5535,2.101l-4.6476 2.7678 5.505 3.181c0.7176,0.4131 1.0074,1.3633 0.5534,2.101 -0.2932,0.4781 -0.7192,0.7201 -1.3,0.7201 -0.3046,0 -0.589,-0.0414 -0.8026,-0.1653l-5.5328 -3.24 -0.0827 5.5652c-0.0129,0.8557 -0.6639,1.5167 -1.5213,1.5167 -0.8575,0 -1.5286,-0.7141 -1.5215,-1.5757l0.0549 -7.2472 -9.7926 -5.6715 0 11.5082 6.1689 3.4583c0.7573,0.4248 1.0287,1.3574 0.6085,2.101 -0.2986,0.5312 -0.7471,0.779 -1.3555,0.779 -0.2491,0 -0.5041,-0.0473 -0.7194,-0.1712l-4.7025 -2.6558 0 6.3384c0,0.8558 -0.6917,1.5226 -1.5492,1.5226l-0.0242 -0.0003z"/>
  <path class="fil0 str0" d="M32.0207 33.7855c-2.5159,0 -4.6851,0.8946 -6.4779,2.6899 -1.7928,1.7954 -2.6899,3.9608 -2.6899,6.4779 0,2.5418 0.8971,4.7134 2.6899,6.5087 1.7929,1.7892 3.9621,2.6899 6.4779,2.6899l0.0607 -0.0004 0 3.1774 -0.0607 0.0003c-3.413,0 -6.3477,-1.1969 -8.7624,-3.6152 -2.4147,-2.4123 -3.6153,-5.3489 -3.6153,-8.7606 0,-3.4118 1.2147,-6.336 3.6153,-8.736 2.4289,-2.4246 5.3494,-3.6399 8.7624,-3.6399l0.0607 0.0003 0 3.2081 -0.0607 -0.0004zm-10.8156 -3.9052c0.5781,0.5799 0.5781,1.5917 0,2.258 -0.3764,0.3147 -0.7521,0.4627 -1.1278,0.4627 -0.4343,0 -0.81,-0.1481 -1.1283,-0.4627l-4.9159 -4.917c-0.6231,-0.6231 -0.6651,-1.5917 0,-2.258 0.5781,-0.5738 1.6775,-0.5738 2.2556,0l4.9164 4.917zm-6.1022 11.4813c0.8964,0 1.5905,0.6972 1.5905,1.5917 0,0.8946 -0.694,1.6164 -1.5905,1.6164l-6.9406 0c-0.8963,0 -1.5904,-0.7218 -1.5904,-1.6163 0,-0.8946 0.6941,-1.5918 1.5904,-1.5918l6.9406 0zm-1.0697 17.3546l4.8584 -4.8615c0.665,-0.6663 1.6485,-0.6663 2.3136,0 0.5781,0.5799 0.6231,1.6349 0,2.258l-4.9165 4.9171c-0.607,0.6046 -1.6485,0.6046 -2.2555,0 -0.6651,-0.6664 -0.6651,-1.6535 0,-2.3136zm16.397 1.24c0,-0.8946 0.6941,-1.5917 1.5905,-1.5917l0.0607 0.0012 0 10.1215 -0.0607 0.0013c-0.8964,0 -1.5905,-0.7526 -1.5905,-1.5917l0 -6.9406zm0 -33.9195l0 -6.9406c0,-0.8945 0.6941,-1.5917 1.5905,-1.5917l0.0607 0.0012 0 10.1217 -0.0607 0.0012c-0.8964,0 -1.5905,-0.6972 -1.5905,-1.5918zm1.6936 42.3965l0 -50.9834 0.0242 -0.0003c0.8575,0 1.5492,0.6905 1.5492,1.5462l0 6.2794 4.7025 -2.6558c0.756,-0.425 1.6429,-0.2007 2.0749,0.5548 0.4255,0.7435 0.1117,1.6937 -0.6084,2.1009l-6.169 3.5174 0 11.5081 9.7926 -5.6714 -0.0549 -7.3062c-0.0065,-0.8027 0.664,-1.5463 1.5214,-1.5463 0.8575,0 1.5084,0.6906 1.5214,1.5463l0.0826 5.5357 5.5329 -3.2104c0.7394,-0.4308 1.7103,-0.1771 2.1026,0.5547 0.4108,0.7613 0.1641,1.6879 -0.5535,2.101l-5.5051 3.1809 4.6476 2.7679c0.7472,0.3599 0.9685,1.3514 0.5536,2.1009 -0.3599,0.4722 -0.8304,0.72 -1.3555,0.72 -0.2769,0 -0.5259,-0.0826 -0.7195,-0.2242l-6.1966 -3.6236 -9.8481 5.6714 9.8482 5.7305 6.1966 -3.6295c0.7088,-0.413 1.6424,-0.2537 2.075,0.5017 0.4249,0.7376 0.1936,1.741 -0.5535,2.101l-4.6476 2.7678 5.505 3.181c0.7176,0.4131 1.0074,1.3633 0.5534,2.101 -0.2932,0.4781 -0.7192,0.7201 -1.3,0.7201 -0.3046,0 -0.589,-0.0414 -0.8026,-0.1653l-5.5328 -3.24 -0.0827 5.5652c-0.0129,0.8557 -0.6639,1.5167 -1.5213,1.5167 -0.8575,0 -1.5286,-0.7141 -1.5215,-1.5757l0.0549 -7.2472 -9.7926 -5.6715 0 11.5082 6.1689 3.4583c0.7573,0.4248 1.0287,1.3574 0.6085,2.101 -0.2986,0.5312 -0.7471,0.779 -1.3555,0.779 -0.2491,0 -0.5041,-0.0473 -0.7194,-0.1712l-4.7025 -2.6558 0 6.3384c0,0.8558 -0.6917,1.5226 -1.5492,1.5226l-0.0242 -0.0003z"/>
  <path class="fil0 str0" d="M32.0207 33.7855c-2.5159,0 -4.6851,0.8946 -6.4779,2.6899 -1.7928,1.7954 -2.6899,3.9608 -2.6899,6.4779 0,2.5418 0.8971,4.7134 2.6899,6.5087 1.7929,1.7892 3.9621,2.6899 6.4779,2.6899l0.0607 -0.0004 0 3.1774 -0.0607 0.0003c-3.413,0 -6.3477,-1.1969 -8.7624,-3.6152 -2.4147,-2.4123 -3.6153,-5.3489 -3.6153,-8.7606 0,-3.4118 1.2147,-6.336 3.6153,-8.736 2.4289,-2.4246 5.3494,-3.6399 8.7624,-3.6399l0.0607 0.0003 0 3.2081 -0.0607 -0.0004zm-10.8156 -3.9052c0.5781,0.5799 0.5781,1.5917 0,2.258 -0.3764,0.3147 -0.7521,0.4627 -1.1278,0.4627 -0.4343,0 -0.81,-0.1481 -1.1283,-0.4627l-4.9159 -4.917c-0.6231,-0.6231 -0.6651,-1.5917 0,-2.258 0.5781,-0.5738 1.6775,-0.5738 2.2556,0l4.9164 4.917zm-6.1022 11.4813c0.8964,0 1.5905,0.6972 1.5905,1.5917 0,0.8946 -0.694,1.6164 -1.5905,1.6164l-6.9406 0c-0.8963,0 -1.5904,-0.7218 -1.5904,-1.6163 0,-0.8946 0.6941,-1.5918 1.5904,-1.5918l6.9406 0zm-1.0697 17.3546l4.8584 -4.8615c0.665,-0.6663 1.6485,-0.6663 2.3136,0 0.5781,0.5799 0.6231,1.6349 0,2.258l-4.9165 4.9171c-0.607,0.6046 -1.6485,0.6046 -2.2555,0 -0.6651,-0.6664 -0.6651,-1.6535 0,-2.3136zm16.397 1.24c0,-0.8946 0.6941,-1.5917 1.5905,-1.5917l0.0607 0.0012 0 10.1215 -0.0607 0.0013c-0.8964,0 -1.5905,-0.7526 -1.5905,-1.5917l0 -6.9406zm0 -33.9195l0 -6.9406c0,-0.8945 0.6941,-1.5917 1.5905,-1.5917l0.0607 0.0012 0 10.1217 -0.0607 0.0012c-0.8964,0 -1.5905,-0.6972 -1.5905,-1.5918zm1.6936 42.3965l0 -50.9834 0.0242 -0.0003c0.8575,0 1.5492,0.6905 1.5492,1.5462l0 6.2794 4.7025 -2.6558c0.756,-0.425 1.6429,-0.2007 2.0749,0.5548 0.4255,0.7435 0.1117,1.6937 -0.6084,2.1009l-6.169 3.5174 0 11.5081 9.7926 -5.6714 -0.0549 -7.3062c-0.0065,-0.8027 0.664,-1.5463 1.5214,-1.5463 0.8575,0 1.5084,0.6906 1.5214,1.5463l0.0826 5.5357 5.5329 -3.2104c0.7394,-0.4308 1.7103,-0.1771 2.1026,0.5547 0.4108,0.7613 0.1641,1.6879 -0.5535,2.101l-5.5051 3.1809 4.6476 2.7679c0.7472,0.3599 0.9685,1.3514 0.5536,2.1009 -0.3599,0.4722 -0.8304,0.72 -1.3555,0.72 -0.2769,0 -0.5259,-0.0826 -0.7195,-0.2242l-6.1966 -3.6236 -9.8481 5.6714 9.8482 5.7305 6.1966 -3.6295c0.7088,-0.413 1.6424,-0.2537 2.075,0.5017 0.4249,0.7376 0.1936,1.741 -0.5535,2.101l-4.6476 2.7678 5.505 3.181c0.7176,0.4131 1.0074,1.3633 0.5534,2.101 -0.2932,0.4781 -0.7192,0.7201 -1.3,0.7201 -0.3046,0 -0.589,-0.0414 -0.8026,-0.1653l-5.5328 -3.24 -0.0827 5.5652c-0.0129,0.8557 -0.6639,1.5167 -1.5213,1.5167 -0.8575,0 -1.5286,-0.7141 -1.5215,-1.5757l0.0549 -7.2472 -9.7926 -5.6715 0 11.5082 6.1689 3.4583c0.7573,0.4248 1.0287,1.3574 0.6085,2.101 -0.2986,0.5312 -0.7471,0.779 -1.3555,0.779 -0.2491,0 -0.5041,-0.0473 -0.7194,-0.1712l-4.7025 -2.6558 0 6.3384c0,0.8558 -0.6917,1.5226 -1.5492,1.5226l-0.0242 -0.0003z"/>
  <path class="fil0 str0" d="M32.0207 33.7855c-2.5159,0 -4.6851,0.8946 -6.4779,2.6899 -1.7928,1.7954 -2.6899,3.9608 -2.6899,6.4779 0,2.5418 0.8971,4.7134 2.6899,6.5087 1.7929,1.7892 3.9621,2.6899 6.4779,2.6899l0.0607 -0.0004 0 3.1774 -0.0607 0.0003c-3.413,0 -6.3477,-1.1969 -8.7624,-3.6152 -2.4147,-2.4123 -3.6153,-5.3489 -3.6153,-8.7606 0,-3.4118 1.2147,-6.336 3.6153,-8.736 2.4289,-2.4246 5.3494,-3.6399 8.7624,-3.6399l0.0607 0.0003 0 3.2081 -0.0607 -0.0004zm-10.8156 -3.9052c0.5781,0.5799 0.5781,1.5917 0,2.258 -0.3764,0.3147 -0.7521,0.4627 -1.1278,0.4627 -0.4343,0 -0.81,-0.1481 -1.1283,-0.4627l-4.9159 -4.917c-0.6231,-0.6231 -0.6651,-1.5917 0,-2.258 0.5781,-0.5738 1.6775,-0.5738 2.2556,0l4.9164 4.917zm-6.1022 11.4813c0.8964,0 1.5905,0.6972 1.5905,1.5917 0,0.8946 -0.694,1.6164 -1.5905,1.6164l-6.9406 0c-0.8963,0 -1.5904,-0.7218 -1.5904,-1.6163 0,-0.8946 0.6941,-1.5918 1.5904,-1.5918l6.9406 0zm-1.0697 17.3546l4.8584 -4.8615c0.665,-0.6663 1.6485,-0.6663 2.3136,0 0.5781,0.5799 0.6231,1.6349 0,2.258l-4.9165 4.9171c-0.607,0.6046 -1.6485,0.6046 -2.2555,0 -0.6651,-0.6664 -0.6651,-1.6535 0,-2.3136zm16.397 1.24c0,-0.8946 0.6941,-1.5917 1.5905,-1.5917l0.0607 0.0012 0 10.1215 -0.0607 0.0013c-0.8964,0 -1.5905,-0.7526 -1.5905,-1.5917l0 -6.9406zm0 -33.9195l0 -6.9406c0,-0.8945 0.6941,-1.5917 1.5905,-1.5917l0.0607 0.0012 0 10.1217 -0.0607 0.0012c-0.8964,0 -1.5905,-0.6972 -1.5905,-1.5918zm1.6936 42.3965l0 -50.9834 0.0242 -0.0003c0.8575,0 1.5492,0.6905 1.5492,1.5462l0 6.2794 4.7025 -2.6558c0.756,-0.425 1.6429,-0.2007 2.0749,0.5548 0.4255,0.7435 0.1117,1.6937 -0.6084,2.1009l-6.169 3.5174 0 11.5081 9.7926 -5.6714 -0.0549 -7.3062c-0.0065,-0.8027 0.664,-1.5463 1.5214,-1.5463 0.8575,0 1.5084,0.6906 1.5214,1.5463l0.0826 5.5357 5.5329 -3.2104c0.7394,-0.4308 1.7103,-0.1771 2.1026,0.5547 0.4108,0.7613 0.1641,1.6879 -0.5535,2.101l-5.5051 3.1809 4.6476 2.7679c0.7472,0.3599 0.9685,1.3514 0.5536,2.1009 -0.3599,0.4722 -0.8304,0.72 -1.3555,0.72 -0.2769,0 -0.5259,-0.0826 -0.7195,-0.2242l-6.1966 -3.6236 -9.8481 5.6714 9.8482 5.7305 6.1966 -3.6295c0.7088,-0.413 1.6424,-0.2537 2.075,0.5017 0.4249,0.7376 0.1936,1.741 -0.5535,2.101l-4.6476 2.7678 5.505 3.181c0.7176,0.4131 1.0074,1.3633 0.5534,2.101 -0.2932,0.4781 -0.7192,0.7201 -1.3,0.7201 -0.3046,0 -0.589,-0.0414 -0.8026,-0.1653l-5.5328 -3.24 -0.0827 5.5652c-0.0129,0.8557 -0.6639,1.5167 -1.5213,1.5167 -0.8575,0 -1.5286,-0.7141 -1.5215,-1.5757l0.0549 -7.2472 -9.7926 -5.6715 0 11.5082 6.1689 3.4583c0.7573,0.4248 1.0287,1.3574 0.6085,2.101 -0.2986,0.5312 -0.7471,0.779 -1.3555,0.779 -0.2491,0 -0.5041,-0.0473 -0.7194,-0.1712l-4.7025 -2.6558 0 6.3384c0,0.8558 -0.6917,1.5226 -1.5492,1.5226l-0.0242 -0.0003z"/>
  <path class="fil0 str0" d="M32.0207 33.7855c-2.5159,0 -4.6851,0.8946 -6.4779,2.6899 -1.7928,1.7954 -2.6899,3.9608 -2.6899,6.4779 0,2.5418 0.8971,4.7134 2.6899,6.5087 1.7929,1.7892 3.9621,2.6899 6.4779,2.6899l0.0607 -0.0004 0 3.1774 -0.0607 0.0003c-3.413,0 -6.3477,-1.1969 -8.7624,-3.6152 -2.4147,-2.4123 -3.6153,-5.3489 -3.6153,-8.7606 0,-3.4118 1.2147,-6.336 3.6153,-8.736 2.4289,-2.4246 5.3494,-3.6399 8.7624,-3.6399l0.0607 0.0003 0 3.2081 -0.0607 -0.0004zm-10.8156 -3.9052c0.5781,0.5799 0.5781,1.5917 0,2.258 -0.3764,0.3147 -0.7521,0.4627 -1.1278,0.4627 -0.4343,0 -0.81,-0.1481 -1.1283,-0.4627l-4.9159 -4.917c-0.6231,-0.6231 -0.6651,-1.5917 0,-2.258 0.5781,-0.5738 1.6775,-0.5738 2.2556,0l4.9164 4.917zm-6.1022 11.4813c0.8964,0 1.5905,0.6972 1.5905,1.5917 0,0.8946 -0.694,1.6164 -1.5905,1.6164l-6.9406 0c-0.8963,0 -1.5904,-0.7218 -1.5904,-1.6163 0,-0.8946 0.6941,-1.5918 1.5904,-1.5918l6.9406 0zm-1.0697 17.3546l4.8584 -4.8615c0.665,-0.6663 1.6485,-0.6663 2.3136,0 0.5781,0.5799 0.6231,1.6349 0,2.258l-4.9165 4.9171c-0.607,0.6046 -1.6485,0.6046 -2.2555,0 -0.6651,-0.6664 -0.6651,-1.6535 0,-2.3136zm16.397 1.24c0,-0.8946 0.6941,-1.5917 1.5905,-1.5917l0.0607 0.0012 0 10.1215 -0.0607 0.0013c-0.8964,0 -1.5905,-0.7526 -1.5905,-1.5917l0 -6.9406zm0 -33.9195l0 -6.9406c0,-0.8945 0.6941,-1.5917 1.5905,-1.5917l0.0607 0.0012 0 10.1217 -0.0607 0.0012c-0.8964,0 -1.5905,-0.6972 -1.5905,-1.5918zm1.6936 42.3965l0 -50.9834 0.0242 -0.0003c0.8575,0 1.5492,0.6905 1.5492,1.5462l0 6.2794 4.7025 -2.6558c0.756,-0.425 1.6429,-0.2007 2.0749,0.5548 0.4255,0.7435 0.1117,1.6937 -0.6084,2.1009l-6.169 3.5174 0 11.5081 9.7926 -5.6714 -0.0549 -7.3062c-0.0065,-0.8027 0.664,-1.5463 1.5214,-1.5463 0.8575,0 1.5084,0.6906 1.5214,1.5463l0.0826 5.5357 5.5329 -3.2104c0.7394,-0.4308 1.7103,-0.1771 2.1026,0.5547 0.4108,0.7613 0.1641,1.6879 -0.5535,2.101l-5.5051 3.1809 4.6476 2.7679c0.7472,0.3599 0.9685,1.3514 0.5536,2.1009 -0.3599,0.4722 -0.8304,0.72 -1.3555,0.72 -0.2769,0 -0.5259,-0.0826 -0.7195,-0.2242l-6.1966 -3.6236 -9.8481 5.6714 9.8482 5.7305 6.1966 -3.6295c0.7088,-0.413 1.6424,-0.2537 2.075,0.5017 0.4249,0.7376 0.1936,1.741 -0.5535,2.101l-4.6476 2.7678 5.505 3.181c0.7176,0.4131 1.0074,1.3633 0.5534,2.101 -0.2932,0.4781 -0.7192,0.7201 -1.3,0.7201 -0.3046,0 -0.589,-0.0414 -0.8026,-0.1653l-5.5328 -3.24 -0.0827 5.5652c-0.0129,0.8557 -0.6639,1.5167 -1.5213,1.5167 -0.8575,0 -1.5286,-0.7141 -1.5215,-1.5757l0.0549 -7.2472 -9.7926 -5.6715 0 11.5082 6.1689 3.4583c0.7573,0.4248 1.0287,1.3574 0.6085,2.101 -0.2986,0.5312 -0.7471,0.779 -1.3555,0.779 -0.2491,0 -0.5041,-0.0473 -0.7194,-0.1712l-4.7025 -2.6558 0 6.3384c0,0.8558 -0.6917,1.5226 -1.5492,1.5226l-0.0242 -0.0003z"/>
  <path class="fil0 str1" d="M32.0207 33.7855c-2.5159,0 -4.6851,0.8946 -6.4779,2.6899 -1.7928,1.7954 -2.6899,3.9608 -2.6899,6.4779 0,2.5418 0.8971,4.7134 2.6899,6.5087 1.7929,1.7892 3.9621,2.6899 6.4779,2.6899l0.0607 -0.0004 0 3.1774 -0.0607 0.0003c-3.413,0 -6.3477,-1.1969 -8.7624,-3.6152 -2.4147,-2.4123 -3.6153,-5.3489 -3.6153,-8.7606 0,-3.4118 1.2147,-6.336 3.6153,-8.736 2.4289,-2.4246 5.3494,-3.6399 8.7624,-3.6399l0.0607 0.0003 0 3.2081 -0.0607 -0.0004zm-10.8156 -3.9052c0.5781,0.5799 0.5781,1.5917 0,2.258 -0.3764,0.3147 -0.7521,0.4627 -1.1278,0.4627 -0.4343,0 -0.81,-0.1481 -1.1283,-0.4627l-4.9159 -4.917c-0.6231,-0.6231 -0.6651,-1.5917 0,-2.258 0.5781,-0.5738 1.6775,-0.5738 2.2556,0l4.9164 4.917zm-6.1022 11.4813c0.8964,0 1.5905,0.6972 1.5905,1.5917 0,0.8946 -0.694,1.6164 -1.5905,1.6164l-6.9406 0c-0.8963,0 -1.5904,-0.7218 -1.5904,-1.6163 0,-0.8946 0.6941,-1.5918 1.5904,-1.5918l6.9406 0zm-1.0697 17.3546l4.8584 -4.8615c0.665,-0.6663 1.6485,-0.6663 2.3136,0 0.5781,0.5799 0.6231,1.6349 0,2.258l-4.9165 4.9171c-0.607,0.6046 -1.6485,0.6046 -2.2555,0 -0.6651,-0.6664 -0.6651,-1.6535 0,-2.3136zm16.397 1.24c0,-0.8946 0.6941,-1.5917 1.5905,-1.5917l0.0607 0.0012 0 10.1215 -0.0607 0.0013c-0.8964,0 -1.5905,-0.7526 -1.5905,-1.5917l0 -6.9406zm0 -33.9195l0 -6.9406c0,-0.8945 0.6941,-1.5917 1.5905,-1.5917l0.0607 0.0012 0 10.1217 -0.0607 0.0012c-0.8964,0 -1.5905,-0.6972 -1.5905,-1.5918zm1.6936 42.3965l0 -50.9834 0.0242 -0.0003c0.8575,0 1.5492,0.6905 1.5492,1.5462l0 6.2794 4.7025 -2.6558c0.756,-0.425 1.6429,-0.2007 2.0749,0.5548 0.4255,0.7435 0.1117,1.6937 -0.6084,2.1009l-6.169 3.5174 0 11.5081 9.7926 -5.6714 -0.0549 -7.3062c-0.0065,-0.8027 0.664,-1.5463 1.5214,-1.5463 0.8575,0 1.5084,0.6906 1.5214,1.5463l0.0826 5.5357 5.5329 -3.2104c0.7394,-0.4308 1.7103,-0.1771 2.1026,0.5547 0.4108,0.7613 0.1641,1.6879 -0.5535,2.101l-5.5051 3.1809 4.6476 2.7679c0.7472,0.3599 0.9685,1.3514 0.5536,2.1009 -0.3599,0.4722 -0.8304,0.72 -1.3555,0.72 -0.2769,0 -0.5259,-0.0826 -0.7195,-0.2242l-6.1966 -3.6236 -9.8481 5.6714 9.8482 5.7305 6.1966 -3.6295c0.7088,-0.413 1.6424,-0.2537 2.075,0.5017 0.4249,0.7376 0.1936,1.741 -0.5535,2.101l-4.6476 2.7678 5.505 3.181c0.7176,0.4131 1.0074,1.3633 0.5534,2.101 -0.2932,0.4781 -0.7192,0.7201 -1.3,0.7201 -0.3046,0 -0.589,-0.0414 -0.8026,-0.1653l-5.5328 -3.24 -0.0827 5.5652c-0.0129,0.8557 -0.6639,1.5167 -1.5213,1.5167 -0.8575,0 -1.5286,-0.7141 -1.5215,-1.5757l0.0549 -7.2472 -9.7926 -5.6715 0 11.5082 6.1689 3.4583c0.7573,0.4248 1.0287,1.3574 0.6085,2.101 -0.2986,0.5312 -0.7471,0.779 -1.3555,0.779 -0.2491,0 -0.5041,-0.0473 -0.7194,-0.1712l-4.7025 -2.6558 0 6.3384c0,0.8558 -0.6917,1.5226 -1.5492,1.5226l-0.0242 -0.0003z"/>
  <ellipse class="fil2 str2" cx="28.8121" cy="44.3134" rx="3.2693" ry="7.838"/>
  <ellipse class="fil2 str2" cx="26.0618" cy="43.3574" rx="5.5138" ry="5.1456"/>
  <ellipse class="fil2 str2" cx="30.2863" cy="44.8971" rx="1.7951" ry="10.4318"/>
  <ellipse class="fil2 str2" cx="28.8108" cy="37.8095" rx="4.8864" ry="0.8033"/>
  <ellipse class="fil2 str2" cx="29.3442" cy="35.3543" rx="2.7372" ry="3.1724"/>
  <ellipse class="fil2 str2" cx="27.588" cy="41.648" rx="0.9809" ry="6.2936"/>
  <ellipse class="fil2 str2" cx="26.2342" cy="36.7557" rx="2.2224" ry="1.9654"/>
  <path class="fil0 str3" d="M24.0118 36.7557c0,-1.0855 0.995,-1.9654 2.2224,-1.9654 0.1404,0 0.2777,0.0115 0.4109,0.0335 0.2178,-1.4995 1.3434,-2.6419 2.6991,-2.6419 1.0208,0 1.9111,0.6476 2.3817,1.6077 0.0977,-0.0027 0.196,-0.0041 0.2948,-0.0041l0.0607 0.0004 0 -3.2081 -0.0607 -0.0003c-3.413,0 -6.3335,1.2153 -8.7624,3.6399 -2.4006,2.4 -3.6153,5.3242 -3.6153,8.736 0,3.4117 1.2006,6.3483 3.6153,8.7606 1.9191,1.922 4.1667,3.0725 6.7218,3.4637 -0.3841,-0.3836 -0.7265,-1.4765 -0.9858,-3.0383 -0.0603,0.008 -0.1211,0.012 -0.1822,0.012 -0.7445,0 -1.4309,-0.5967 -1.9805,-1.6014 -0.449,-0.3161 -0.8788,-0.6788 -1.2888,-1.088 -0.3685,-0.369 -0.6991,-0.7539 -0.9919,-1.1546 -2.3107,-0.613 -4.0029,-2.5971 -4.0029,-4.95 0,-2.1345 1.3927,-3.9655 3.3763,-4.7447 0.0967,-0.1764 0.1998,-0.3501 0.3095,-0.5212 -0.2,-0.0878 -0.3094,-0.1828 -0.3094,-0.282 0,-0.0931 0.0963,-0.1825 0.2733,-0.2656 -0.1195,-0.2413 -0.1859,-0.5079 -0.1859,-0.7882z"/>
  <path class="fil0 str3" d="M24.0118 36.7557c0,-1.0855 0.995,-1.9654 2.2224,-1.9654 0.1404,0 0.2777,0.0115 0.4109,0.0335 0.2178,-1.4995 1.3434,-2.6419 2.6991,-2.6419 1.0208,0 1.9111,0.6476 2.3817,1.6077 0.0977,-0.0027 0.196,-0.0041 0.2948,-0.0041l0.0607 0.0004 0 -3.2081 -0.0607 -0.0003c-3.413,0 -6.3335,1.2153 -8.7624,3.6399 -2.4006,2.4 -3.6153,5.3242 -3.6153,8.736 0,3.4117 1.2006,6.3483 3.6153,8.7606 1.9191,1.922 4.1667,3.0725 6.7218,3.4637 -0.3841,-0.3836 -0.7265,-1.4765 -0.9858,-3.0383 -0.0603,0.008 -0.1211,0.012 -0.1822,0.012 -0.7445,0 -1.4309,-0.5967 -1.9805,-1.6014 -0.449,-0.3161 -0.8788,-0.6788 -1.2888,-1.088 -0.3685,-0.369 -0.6991,-0.7539 -0.9919,-1.1546 -2.3107,-0.613 -4.0029,-2.5971 -4.0029,-4.95 0,-2.1345 1.3927,-3.9655 3.3763,-4.7447 0.0967,-0.1764 0.1998,-0.3501 0.3095,-0.5212 -0.2,-0.0878 -0.3094,-0.1828 -0.3094,-0.282 0,-0.0931 0.0963,-0.1825 0.2733,-0.2656 -0.1195,-0.2413 -0.1859,-0.5079 -0.1859,-0.7882z"/>
  <path class="fil0 str3" d="M24.8983 38.3266c-0.3371,0.0675 -0.6628,0.1639 -0.974,0.2861 -1.9836,0.7792 -3.3763,2.6102 -3.3763,4.7447 0,2.3529 1.6923,4.337 4.0029,4.95 0.4761,0.1263 0.9784,0.1944 1.4976,0.1956 0.0045,0 0.0089,0 0.0133,0 0.9028,0 1.7549,-0.2025 2.5071,-0.5614 -0.0505,-0.9631 -0.0777,-1.9854 -0.0777,-3.0445 0,-0.2997 0.0022,-0.5964 0.0064,-0.8897 -0.1455,2.3069 -0.4979,3.9342 -0.9096,3.9342 -0.5417,0 -0.9809,-2.8177 -0.9809,-6.2936 0,-1.076 0.0421,-2.0889 0.1163,-2.9747 -0.0639,0.0127 -0.1289,0.023 -0.1947,0.0307 -0.0964,0.0113 -0.1947,0.0171 -0.2945,0.0171 -0.5014,0 -0.964,-0.1468 -1.3359,-0.3945z"/>
 </g>
</svg>
