<?xml version="1.0" encoding="UTF-8"?>
<!DOCTYPE svg PUBLIC "-//W3C//DTD SVG 1.1//EN" "http://www.w3.org/Graphics/SVG/1.1/DTD/svg11.dtd">
<!-- Creator: CorelDRAW -->
<svg xmlns="http://www.w3.org/2000/svg" xml:space="preserve" width="210mm" height="297mm" style="shape-rendering:geometricPrecision; text-rendering:geometricPrecision; image-rendering:optimizeQuality; fill-rule:evenodd; clip-rule:evenodd"
viewBox="0 0 210 297"
 xmlns:xlink="http://www.w3.org/1999/xlink"
 version="1.1">
 <defs>
  <style type="text/css">
   <![CDATA[
    .str0 {stroke:#2B2A29;stroke-width:0.2}
    .fil1 {fill:#2B2A29}
    .fil0 {fill:black}
   ]]>
  </style>
 </defs>
 <g id="Слой_x0020_1">
  <metadata id="CorelCorpID_0Corel-Layer"/>
  <path class="fil0" d="M55.2893 42.1002l0 -0.0095 2.6106 -1.5072 3.1359 -1.8676c0.6887,-0.3318 0.9019,-1.2566 0.5102,-1.9365 -0.3987,-0.6963 -1.2593,-0.8431 -1.9125,-0.4624l-5.7117 3.3454 -9.0775 -5.282 9.0774 -5.2276 5.7117 3.34c0.1784,0.1305 0.4079,0.2067 0.6631,0.2067 0.4841,0 0.9177,-0.2284 1.2494,-0.6637 0.3825,-0.6908 0.1785,-1.6047 -0.5102,-1.9365l-2.3104 -1.3759 -3.4171 -1.9729 -0.0195 0 0 -0.2646 0 -0.0354 0 -0.2646 0 -1.5379 0.0025 0 -0.069 -4.6231c-0.012,-0.7888 -0.612,-1.4253 -1.4024,-1.4253 -0.7903,0 -1.4083,0.6854 -1.4023,1.4253l0.0506 6.7344 -9.0263 5.2276 0 -10.6075 5.6862 -3.2421c0.6638,-0.3754 0.9531,-1.2512 0.5609,-1.9366 -0.3982,-0.6963 -1.2157,-0.903 -1.9126,-0.5113l-4.3345 2.4479 0 -5.788c0,-0.7887 -0.6375,-1.4251 -1.4279,-1.4251 -0.7904,0 -1.4023,0.6364 -1.4023,1.4251l0 44.1655c0,0.7887 0.6119,1.4034 1.4023,1.4034 0.7904,0 1.4279,-0.6146 1.4279,-1.4034l0 -5.8424 4.3345 2.448c0.1985,0.1142 0.4335,0.1578 0.6632,0.1578 0.5607,0 0.9742,-0.2285 1.2494,-0.7181 0.3873,-0.6854 0.1371,-1.5449 -0.5609,-1.9365l-5.6862 -3.1877 0 -10.6076 9.0263 5.2276 -0.0506 6.6801c-0.0066,0.7942 0.612,1.4524 1.4024,1.4524 0.7904,0 1.3903,-0.6092 1.4023,-1.398l0.0499 -3.3592 0 -3.0395 0.0011 0 0 -0.2915 0.0161 0z"/>
  <g id="sun94.svg">
   <g>
    <path id="_308914512" class="fil0" d="M42.9206 22.9138c-2.5275,0.3135 -4.7357,1.4147 -6.6249,3.3005 -2.2385,2.238 -3.3713,4.9649 -3.3713,8.1465 0,3.1815 1.1196,5.9199 3.3713,8.1694 1.8784,1.8811 4.0942,2.9697 6.6249,3.279l0 -3.0003c-1.6994,-0.2942 -3.2019,-1.0887 -4.4945,-2.3787 -1.6718,-1.6741 -2.5084,-3.6992 -2.5084,-6.0695 0,-2.3473 0.8365,-4.3665 2.5084,-6.0408 1.2926,-1.2944 2.7951,-2.0864 4.4945,-2.3793l0 -3.0268z"/>
    <path id="_308300744" class="fil0" d="M32.2772 24.2755c0.2969,0.2934 0.6472,0.4315 1.0522,0.4315 0.3504,0 0.7007,-0.138 1.0517,-0.4315 0.5391,-0.6213 0.5391,-1.5648 0,-2.1056l-4.5847 -4.5852c-0.5391,-0.5351 -1.5643,-0.5351 -2.1033,0 -0.6202,0.6213 -0.5811,1.5245 0,2.1056l4.5841 4.5852z"/>
    <path id="_308301080" class="fil0" d="M32.2237 44.5264l-4.5306 4.5335c-0.6201,0.6156 -0.6201,1.5361 0,2.1575 0.5661,0.5638 1.5373,0.5638 2.1034,0l4.5847 -4.5853c0.581,-0.581 0.539,-1.5649 0,-2.1056 -0.6203,-0.6214 -1.5373,-0.6214 -2.1575,-0.0001z"/>
    <path id="_308301152" class="fil0" d="M30.1738 34.3607c0,-0.8341 -0.6472,-1.4843 -1.4831,-1.4843l-6.4722 0.0001c-0.8359,0 -1.4831,0.6501 -1.4831,1.4843 0,0.8341 0.6472,1.5073 1.4831,1.5073l6.4722 0c0.836,0 1.4831,-0.6732 1.4831,-1.5074z"/>
   </g>
   <g>
   </g>
   <g>
   </g>
   <g>
   </g>
   <g>
   </g>
   <g>
   </g>
   <g>
   </g>
   <g>
   </g>
   <g>
   </g>
   <g>
   </g>
   <g>
   </g>
   <g>
   </g>
   <g>
   </g>
   <g>
   </g>
   <g>
   </g>
   <g>
   </g>
  </g>
  <path class="fil1 str0" d="M38.4262 28.3198c-1.6719,1.6743 -2.5084,3.6935 -2.5084,6.0408 0,2.3703 0.8366,4.3954 2.5084,6.0695 0.6723,0.6709 1.4014,1.2078 2.1854,1.61l0 -15.3327c-0.784,0.4019 -1.5131,0.9392 -2.1854,1.6124z"/>
 </g>
</svg>
